<svg xmlns="http://www.w3.org/2000/svg" height="1107" width="960.0" font-size="16" font-family="sans-serif" stroke-width="2">
<g transform="translate(10.0 0)">
<text fill="hsl(0, 100%, 40%)" y="22">simple.parseStatus 77.4 μs</text>
<g>
<title>77.4 μs ± 5.8 μs</title>
<rect y="28" rx="5" height="22" width="18.953133060681097" fill="hsl(0, 100%, 80%)" stroke="hsl(0, 100%, 55%)" />
<g stroke="hsl(0, 100%, 40%)"><line x1="17.521925217999723" x2="20.38434090336247" y1="39" y2="39" />
<line x1="17.521925217999723" x2="17.521925217999723" y1="33" y2="45" />
<line x1="20.38434090336247" x2="20.38434090336247" y1="33" y2="45" />
</g>
</g>
<text fill="hsl(18, 100%, 40%)" y="77">simple.parseStatusLocal 82.4 μs</text>
<g>
<title>82.4 μs ± 1.5 μs</title>
<rect y="83" rx="5" height="22" width="20.17214644996251" fill="hsl(18, 100%, 80%)" stroke="hsl(18, 100%, 55%)" />
<g stroke="hsl(18, 100%, 40%)"><line x1="19.80941947799333" x2="20.534873421931692" y1="94" y2="94" />
<line x1="19.80941947799333" x2="19.80941947799333" y1="88" y2="100" />
<line x1="20.534873421931692" x2="20.534873421931692" y1="88" y2="100" />
</g>
</g>
<text fill="hsl(36, 100%, 40%)" y="132">simple.parseStatusInfix 186  μs</text>
<g>
<title>186  μs ±  12 μs</title>
<rect y="138" rx="5" height="22" width="45.60974312551531" fill="hsl(36, 100%, 80%)" stroke="hsl(36, 100%, 55%)" />
<g stroke="hsl(36, 100%, 40%)"><line x1="42.738468149704" x2="48.48101810132662" y1="149" y2="149" />
<line x1="42.738468149704" x2="42.738468149704" y1="143" y2="155" />
<line x1="48.48101810132662" x2="48.48101810132662" y1="143" y2="155" />
</g>
</g>
<text fill="hsl(54, 100%, 40%)" y="187">simple.parseStatusLocalInfix 230  μs</text>
<g>
<title>230  μs ±  23 μs</title>
<rect y="193" rx="5" height="22" width="56.38924045786433" fill="hsl(54, 100%, 80%)" stroke="hsl(54, 100%, 55%)" />
<g stroke="hsl(54, 100%, 40%)"><line x1="50.82835003650912" x2="61.95013087921954" y1="204" y2="204" />
<line x1="50.82835003650912" x2="50.82835003650912" y1="198" y2="210" />
<line x1="61.95013087921954" x2="61.95013087921954" y1="198" y2="210" />
</g>
</g>
<text fill="hsl(72, 100%, 40%)" y="242">local.parseStatus 38.8 μs</text>
<g>
<title>38.8 μs ± 2.7 μs</title>
<rect y="248" rx="5" height="22" width="9.498574447633125" fill="hsl(72, 100%, 80%)" stroke="hsl(72, 100%, 55%)" />
<g stroke="hsl(72, 100%, 40%)"><line x1="8.838737041641703" x2="10.158411853624546" y1="259" y2="259" />
<line x1="8.838737041641703" x2="8.838737041641703" y1="253" y2="265" />
<line x1="10.158411853624546" x2="10.158411853624546" y1="253" y2="265" />
</g>
</g>
<g fill="hsl(90, 100%, 40%)">
<text y="297">local.parseStatusLocal</text>
<text y="297" x="375.26038083910635" text-anchor="end">1.53 ms</text>
</g>
<g>
<title>1.53 ms ±  93 μs</title>
<rect y="303" rx="5" height="22" width="375.26038083910635" fill="hsl(90, 100%, 80%)" stroke="hsl(90, 100%, 55%)" />
<g stroke="hsl(90, 100%, 40%)"><line x1="352.4758700953217" x2="398.044891582891" y1="314" y2="314" />
<line x1="352.4758700953217" x2="352.4758700953217" y1="308" y2="320" />
<line x1="398.044891582891" x2="398.044891582891" y1="308" y2="320" />
</g>
</g>
<text fill="hsl(108, 100%, 40%)" y="352">local.parseStatusInfix 939  μs</text>
<g>
<title>939  μs ±  88 μs</title>
<rect y="358" rx="5" height="22" width="229.9850634137542" fill="hsl(108, 100%, 80%)" stroke="hsl(108, 100%, 55%)" />
<g stroke="hsl(108, 100%, 40%)"><line x1="208.5067010252255" x2="251.4634258022829" y1="369" y2="369" />
<line x1="208.5067010252255" x2="208.5067010252255" y1="363" y2="375" />
<line x1="251.4634258022829" x2="251.4634258022829" y1="363" y2="375" />
</g>
</g>
<g fill="hsl(126, 100%, 40%)">
<text y="407">local.parseStatusLocalInfix</text>
<text y="407" x="663.5294932478231" text-anchor="end">2.71 ms</text>
</g>
<g>
<title>2.71 ms ± 196 μs</title>
<rect y="413" rx="5" height="22" width="663.5294932478231" fill="hsl(126, 100%, 80%)" stroke="hsl(126, 100%, 55%)" />
<g stroke="hsl(126, 100%, 40%)"><line x1="615.525920135092" x2="711.5330663605542" y1="424" y2="424" />
<line x1="615.525920135092" x2="615.525920135092" y1="418" y2="430" />
<line x1="711.5330663605542" x2="711.5330663605542" y1="418" y2="430" />
</g>
</g>
<text fill="hsl(144, 100%, 40%)" y="462">infix.parseStatus 36.6 μs</text>
<g>
<title>36.6 μs ± 2.8 μs</title>
<rect y="468" rx="5" height="22" width="8.962686056922722" fill="hsl(144, 100%, 80%)" stroke="hsl(144, 100%, 55%)" />
<g stroke="hsl(144, 100%, 40%)"><line x1="8.282192154976084" x2="9.64317995886936" y1="479" y2="479" />
<line x1="8.282192154976084" x2="8.282192154976084" y1="473" y2="485" />
<line x1="9.64317995886936" x2="9.64317995886936" y1="473" y2="485" />
</g>
</g>
<text fill="hsl(162, 100%, 40%)" y="517">infix.parseStatusLocal 42.4 μs</text>
<g>
<title>42.4 μs ± 2.9 μs</title>
<rect y="523" rx="5" height="22" width="10.375082476991329" fill="hsl(162, 100%, 80%)" stroke="hsl(162, 100%, 55%)" />
<g stroke="hsl(162, 100%, 40%)"><line x1="9.664530163222611" x2="11.085634790760047" y1="534" y2="534" />
<line x1="9.664530163222611" x2="9.664530163222611" y1="528" y2="540" />
<line x1="11.085634790760047" x2="11.085634790760047" y1="528" y2="540" />
</g>
</g>
<text fill="hsl(180, 100%, 40%)" y="572">infix.parseStatusInfix 261  μs</text>
<g>
<title>261  μs ±  22 μs</title>
<rect y="578" rx="5" height="22" width="63.976634066631085" fill="hsl(180, 100%, 80%)" stroke="hsl(180, 100%, 55%)" />
<g stroke="hsl(180, 100%, 40%)"><line x1="58.69177200438216" x2="69.26149612888001" y1="589" y2="589" />
<line x1="58.69177200438216" x2="58.69177200438216" y1="583" y2="595" />
<line x1="69.26149612888001" x2="69.26149612888001" y1="583" y2="595" />
</g>
</g>
<text fill="hsl(198, 100%, 40%)" y="627">infix.parseStatusLocalInfix 321  μs</text>
<g>
<title>321  μs ±  26 μs</title>
<rect y="633" rx="5" height="22" width="78.71026804342382" fill="hsl(198, 100%, 80%)" stroke="hsl(198, 100%, 55%)" />
<g stroke="hsl(198, 100%, 40%)"><line x1="72.33710312146847" x2="85.08343296537917" y1="644" y2="644" />
<line x1="72.33710312146847" x2="72.33710312146847" y1="638" y2="650" />
<line x1="85.08343296537917" x2="85.08343296537917" y1="638" y2="650" />
</g>
</g>
<text fill="hsl(216, 100%, 40%)" y="682">local_infix.parseStatus 37.1 μs</text>
<g>
<title>37.1 μs ± 3.4 μs</title>
<rect y="688" rx="5" height="22" width="9.073628713125082" fill="hsl(216, 100%, 80%)" stroke="hsl(216, 100%, 55%)" />
<g stroke="hsl(216, 100%, 40%)"><line x1="8.233221435310037" x2="9.914035990940127" y1="699" y2="699" />
<line x1="8.233221435310037" x2="8.233221435310037" y1="693" y2="705" />
<line x1="9.914035990940127" x2="9.914035990940127" y1="693" y2="705" />
</g>
</g>
<text fill="hsl(234, 100%, 40%)" y="737">local_infix.parseStatusLocal 44.2 μs</text>
<g>
<title>44.2 μs ± 3.0 μs</title>
<rect y="743" rx="5" height="22" width="10.825858503692503" fill="hsl(234, 100%, 80%)" stroke="hsl(234, 100%, 55%)" />
<g stroke="hsl(234, 100%, 40%)"><line x1="10.098447092428387" x2="11.55326991495662" y1="754" y2="754" />
<line x1="10.098447092428387" x2="10.098447092428387" y1="748" y2="760" />
<line x1="11.55326991495662" x2="11.55326991495662" y1="748" y2="760" />
</g>
</g>
<text fill="hsl(252, 100%, 40%)" y="792">local_infix.parseStatusInfix 1.06 ms</text>
<g>
<title>1.06 ms ± 101 μs</title>
<rect y="798" rx="5" height="22" width="259.32838235205867" fill="hsl(252, 100%, 80%)" stroke="hsl(252, 100%, 55%)" />
<g stroke="hsl(252, 100%, 40%)"><line x1="234.4910643108966" x2="284.16570039322073" y1="809" y2="809" />
<line x1="234.4910643108966" x2="234.4910643108966" y1="803" y2="815" />
<line x1="284.16570039322073" x2="284.16570039322073" y1="803" y2="815" />
</g>
</g>
<g fill="hsl(270, 100%, 40%)">
<text y="847">local_infix.parseStatusLocalInfix</text>
<text y="847" x="888.8752332378667" text-anchor="end">3.63 ms</text>
</g>
<g>
<title>3.63 ms ± 209 μs</title>
<rect y="853" rx="5" height="22" width="888.8752332378667" fill="hsl(270, 100%, 80%)" stroke="hsl(270, 100%, 55%)" />
<g stroke="hsl(270, 100%, 40%)"><line x1="837.7504664757334" x2="940.0" y1="864" y2="864" />
<line x1="837.7504664757334" x2="837.7504664757334" y1="858" y2="870" />
<line x1="940.0" x2="940.0" y1="858" y2="870" />
</g>
</g>
<text fill="hsl(288, 100%, 40%)" y="902">formatStatus 20.2 μs</text>
<g>
<title>20.2 μs ± 1.6 μs</title>
<rect y="908" rx="5" height="22" width="4.93740646971908" fill="hsl(288, 100%, 80%)" stroke="hsl(288, 100%, 55%)" />
<g stroke="hsl(288, 100%, 40%)"><line x1="4.557518724029166" x2="5.317294215408993" y1="919" y2="919" />
<line x1="4.557518724029166" x2="4.557518724029166" y1="913" y2="925" />
<line x1="5.317294215408993" x2="5.317294215408993" y1="913" y2="925" />
</g>
</g>
<text fill="hsl(306, 100%, 40%)" y="957">formatStatus_compact 19.2 μs</text>
<g>
<title>19.2 μs ± 1.5 μs</title>
<rect y="963" rx="5" height="22" width="4.691470069222921" fill="hsl(306, 100%, 80%)" stroke="hsl(306, 100%, 55%)" />
<g stroke="hsl(306, 100%, 40%)"><line x1="4.323339370840837" x2="5.059600767605006" y1="974" y2="974" />
<line x1="4.323339370840837" x2="4.323339370840837" y1="968" y2="980" />
<line x1="5.059600767605006" x2="5.059600767605006" y1="968" y2="980" />
</g>
</g>
<text fill="hsl(324, 100%, 40%)" y="1012">readFormattedStatus 142  μs</text>
<g>
<title>142  μs ± 6.9 μs</title>
<rect y="1018" rx="5" height="22" width="34.77335288931334" fill="hsl(324, 100%, 80%)" stroke="hsl(324, 100%, 55%)" />
<g stroke="hsl(324, 100%, 40%)"><line x1="33.07253465332604" x2="36.474171125300636" y1="1029" y2="1029" />
<line x1="33.07253465332604" x2="33.07253465332604" y1="1023" y2="1035" />
<line x1="36.474171125300636" x2="36.474171125300636" y1="1023" y2="1035" />
</g>
</g>
<text fill="hsl(342, 100%, 40%)" y="1067">readFormattedStatus_compact 144  μs</text>
<g>
<title>144  μs ±  14 μs</title>
<rect y="1073" rx="5" height="22" width="35.24136878179757" fill="hsl(342, 100%, 80%)" stroke="hsl(342, 100%, 55%)" />
<g stroke="hsl(342, 100%, 40%)"><line x1="31.77175623282787" x2="38.71098133076727" y1="1084" y2="1084" />
<line x1="31.77175623282787" x2="31.77175623282787" y1="1078" y2="1090" />
<line x1="38.71098133076727" x2="38.71098133076727" y1="1078" y2="1090" />
</g>
</g>
</g>
</svg>
