<svg xmlns="http://www.w3.org/2000/svg" height="282" width="960.0" font-size="16" font-family="sans-serif" stroke-width="2">
<g transform="translate(10.0 0)">
<g fill="hsl(0, 100%, 40%)">
<text y="22">parseStatus</text>
<text y="22" x="391.0422504060242" text-anchor="end">53.1 μs</text>
</g>
<g>
<title>53.1 μs ± 3.9 μs</title>
<rect y="28" rx="5" height="22" width="391.0422504060242" fill="hsl(0, 100%, 80%)" stroke="hsl(0, 100%, 55%)" />
<g stroke="hsl(0, 100%, 40%)"><line x1="362.68221670701257" x2="419.40228410503585" y1="39" y2="39" />
<line x1="362.68221670701257" x2="362.68221670701257" y1="33" y2="45" />
<line x1="419.40228410503585" x2="419.40228410503585" y1="33" y2="45" />
</g>
</g>
<text fill="hsl(72, 100%, 40%)" y="77">formatStatus 15.6 μs</text>
<g>
<title>15.6 μs ± 845 ns</title>
<rect y="83" rx="5" height="22" width="114.84528395928456" fill="hsl(72, 100%, 80%)" stroke="hsl(72, 100%, 55%)" />
<g stroke="hsl(72, 100%, 40%)"><line x1="108.62097657743257" x2="121.06959134113654" y1="94" y2="94" />
<line x1="108.62097657743257" x2="108.62097657743257" y1="88" y2="100" />
<line x1="121.06959134113654" x2="121.06959134113654" y1="88" y2="100" />
</g>
</g>
<text fill="hsl(144, 100%, 40%)" y="132">formatStatus_compact 15.6 μs</text>
<g>
<title>15.6 μs ± 821 ns</title>
<rect y="138" rx="5" height="22" width="114.86385083965973" fill="hsl(144, 100%, 80%)" stroke="hsl(144, 100%, 55%)" />
<g stroke="hsl(144, 100%, 40%)"><line x1="108.81941103168802" x2="120.90829064763145" y1="149" y2="149" />
<line x1="108.81941103168802" x2="108.81941103168802" y1="143" y2="155" />
<line x1="120.90829064763145" x2="120.90829064763145" y1="143" y2="155" />
</g>
</g>
<g fill="hsl(216, 100%, 40%)">
<text y="187">readFormattedStatus</text>
<text y="187" x="883.2902246316216" text-anchor="end">120  μs</text>
</g>
<g>
<title>120  μs ± 5.6 μs</title>
<rect y="193" rx="5" height="22" width="883.2902246316216" fill="hsl(216, 100%, 80%)" stroke="hsl(216, 100%, 55%)" />
<g stroke="hsl(216, 100%, 40%)"><line x1="842.0618851631854" x2="924.5185641000579" y1="204" y2="204" />
<line x1="842.0618851631854" x2="842.0618851631854" y1="198" y2="210" />
<line x1="924.5185641000579" x2="924.5185641000579" y1="198" y2="210" />
</g>
</g>
<g fill="hsl(288, 100%, 40%)">
<text y="242">readFormattedStatus_compact</text>
<text y="242" x="894.529238795341" text-anchor="end">122  μs</text>
</g>
<g>
<title>122  μs ± 6.2 μs</title>
<rect y="248" rx="5" height="22" width="894.529238795341" fill="hsl(288, 100%, 80%)" stroke="hsl(288, 100%, 55%)" />
<g stroke="hsl(288, 100%, 40%)"><line x1="849.0584775906821" x2="940.0" y1="259" y2="259" />
<line x1="849.0584775906821" x2="849.0584775906821" y1="253" y2="265" />
<line x1="940.0" x2="940.0" y1="253" y2="265" />
</g>
</g>
</g>
</svg>
