<svg xmlns="http://www.w3.org/2000/svg" height="447" width="960.0" font-size="16" font-family="sans-serif" stroke-width="2">
<g transform="translate(10.0 0)">
<text fill="hsl(0, 100%, 40%)" y="22">parseStatus 77.6 μs</text>
<g>
<title>77.6 μs ± 5.5 μs</title>
<rect y="28" rx="5" height="22" width="15.866359614834877" fill="hsl(0, 100%, 80%)" stroke="hsl(0, 100%, 55%)" />
<g stroke="hsl(0, 100%, 40%)"><line x1="14.750720908197907" x2="16.98199832147185" y1="39" y2="39" />
<line x1="14.750720908197907" x2="14.750720908197907" y1="33" y2="45" />
<line x1="16.98199832147185" x2="16.98199832147185" y1="33" y2="45" />
</g>
</g>
<g fill="hsl(45, 100%, 40%)">
<text y="77">parseStatusLocal</text>
<text y="77" x="314.945250596189" text-anchor="end">1.54 ms</text>
</g>
<g>
<title>1.54 ms ±  58 μs</title>
<rect y="83" rx="5" height="22" width="314.945250596189" fill="hsl(45, 100%, 80%)" stroke="hsl(45, 100%, 55%)" />
<g stroke="hsl(45, 100%, 40%)"><line x1="303.00296253790725" x2="326.88753865447075" y1="94" y2="94" />
<line x1="303.00296253790725" x2="303.00296253790725" y1="88" y2="100" />
<line x1="326.88753865447075" x2="326.88753865447075" y1="88" y2="100" />
</g>
</g>
<text fill="hsl(90, 100%, 40%)" y="132">parseStatusInfix 259  μs</text>
<g>
<title>259  μs ±  22 μs</title>
<rect y="138" rx="5" height="22" width="53.04765038299699" fill="hsl(90, 100%, 80%)" stroke="hsl(90, 100%, 55%)" />
<g stroke="hsl(90, 100%, 40%)"><line x1="48.50908600154781" x2="57.586214764446176" y1="149" y2="149" />
<line x1="48.50908600154781" x2="48.50908600154781" y1="143" y2="155" />
<line x1="57.586214764446176" x2="57.586214764446176" y1="143" y2="155" />
</g>
</g>
<g fill="hsl(135, 100%, 40%)">
<text y="187">parseStatusLocalInfix</text>
<text y="187" x="870.0385567124636" text-anchor="end">4.25 ms</text>
</g>
<g>
<title>4.25 ms ± 342 μs</title>
<rect y="193" rx="5" height="22" width="870.0385567124636" fill="hsl(135, 100%, 80%)" stroke="hsl(135, 100%, 55%)" />
<g stroke="hsl(135, 100%, 40%)"><line x1="800.0771134249271" x2="940.0" y1="204" y2="204" />
<line x1="800.0771134249271" x2="800.0771134249271" y1="198" y2="210" />
<line x1="940.0" x2="940.0" y1="198" y2="210" />
</g>
</g>
<text fill="hsl(180, 100%, 40%)" y="242">formatStatus 21.3 μs</text>
<g>
<title>21.3 μs ± 747 ns</title>
<rect y="248" rx="5" height="22" width="4.356831010194184" fill="hsl(180, 100%, 80%)" stroke="hsl(180, 100%, 55%)" />
<g stroke="hsl(180, 100%, 40%)"><line x1="4.20407435658416" x2="4.509587663804208" y1="259" y2="259" />
<line x1="4.20407435658416" x2="4.20407435658416" y1="253" y2="265" />
<line x1="4.509587663804208" x2="4.509587663804208" y1="253" y2="265" />
</g>
</g>
<text fill="hsl(225, 100%, 40%)" y="297">formatStatus_compact 18.9 μs</text>
<g>
<title>18.9 μs ± 1.8 μs</title>
<rect y="303" rx="5" height="22" width="3.874848995502505" fill="hsl(225, 100%, 80%)" stroke="hsl(225, 100%, 55%)" />
<g stroke="hsl(225, 100%, 40%)"><line x1="3.514561504501775" x2="4.235136486503235" y1="314" y2="314" />
<line x1="3.514561504501775" x2="3.514561504501775" y1="308" y2="320" />
<line x1="4.235136486503235" x2="4.235136486503235" y1="308" y2="320" />
</g>
</g>
<text fill="hsl(270, 100%, 40%)" y="352">readFormattedStatus 141  μs</text>
<g>
<title>141  μs ±  14 μs</title>
<rect y="358" rx="5" height="22" width="28.898485027502453" fill="hsl(270, 100%, 80%)" stroke="hsl(270, 100%, 55%)" />
<g stroke="hsl(270, 100%, 40%)"><line x1="26.11643951514203" x2="31.680530539862875" y1="369" y2="369" />
<line x1="26.11643951514203" x2="26.11643951514203" y1="363" y2="375" />
<line x1="31.680530539862875" x2="31.680530539862875" y1="363" y2="375" />
</g>
</g>
<text fill="hsl(315, 100%, 40%)" y="407">readFormattedStatus_compact 139  μs</text>
<g>
<title>139  μs ±  14 μs</title>
<rect y="413" rx="5" height="22" width="28.459867970672104" fill="hsl(315, 100%, 80%)" stroke="hsl(315, 100%, 55%)" />
<g stroke="hsl(315, 100%, 40%)"><line x1="25.622076745666547" x2="31.29765919567766" y1="424" y2="424" />
<line x1="25.622076745666547" x2="25.622076745666547" y1="418" y2="430" />
<line x1="31.29765919567766" x2="31.29765919567766" y1="418" y2="430" />
</g>
</g>
</g>
</svg>
