<svg xmlns="http://www.w3.org/2000/svg" height="1107" width="960.0" font-size="16" font-family="sans-serif" stroke-width="2">
<g transform="translate(10.0 0)">
<text fill="hsl(0, 100%, 40%)" y="22">simple.parseStatus 73.7 μs</text>
<g>
<title>73.7 μs ± 5.6 μs</title>
<rect y="28" rx="5" height="22" width="15.82731997875521" fill="hsl(0, 100%, 80%)" stroke="hsl(0, 100%, 55%)" />
<g stroke="hsl(0, 100%, 40%)"><line x1="14.630056052275325" x2="17.024583905235094" y1="39" y2="39" />
<line x1="14.630056052275325" x2="14.630056052275325" y1="33" y2="45" />
<line x1="17.024583905235094" x2="17.024583905235094" y1="33" y2="45" />
</g>
</g>
<text fill="hsl(18, 100%, 40%)" y="77">simple.parseStatusLocal 85.2 μs</text>
<g>
<title>85.2 μs ± 2.1 μs</title>
<rect y="83" rx="5" height="22" width="18.297245038372925" fill="hsl(18, 100%, 80%)" stroke="hsl(18, 100%, 55%)" />
<g stroke="hsl(18, 100%, 40%)"><line x1="17.8541039355187" x2="18.740386141227148" y1="94" y2="94" />
<line x1="17.8541039355187" x2="17.8541039355187" y1="88" y2="100" />
<line x1="18.740386141227148" x2="18.740386141227148" y1="88" y2="100" />
</g>
</g>
<text fill="hsl(36, 100%, 40%)" y="132">simple.parseStatusInfix 170  μs</text>
<g>
<title>170  μs ±  12 μs</title>
<rect y="138" rx="5" height="22" width="36.469719507955126" fill="hsl(36, 100%, 80%)" stroke="hsl(36, 100%, 55%)" />
<g stroke="hsl(36, 100%, 40%)"><line x1="33.8096191591551" x2="39.129819856755155" y1="149" y2="149" />
<line x1="33.8096191591551" x2="33.8096191591551" y1="143" y2="155" />
<line x1="39.129819856755155" x2="39.129819856755155" y1="143" y2="155" />
</g>
</g>
<text fill="hsl(54, 100%, 40%)" y="187">simple.parseStatusLocalInfix 296  μs</text>
<g>
<title>296  μs ±  22 μs</title>
<rect y="193" rx="5" height="22" width="63.52447851157993" fill="hsl(54, 100%, 80%)" stroke="hsl(54, 100%, 55%)" />
<g stroke="hsl(54, 100%, 40%)"><line x1="58.84189980148501" x2="68.20705722167484" y1="204" y2="204" />
<line x1="58.84189980148501" x2="58.84189980148501" y1="198" y2="210" />
<line x1="68.20705722167484" x2="68.20705722167484" y1="198" y2="210" />
</g>
</g>
<text fill="hsl(72, 100%, 40%)" y="242">local.parseStatus 37.2 μs</text>
<g>
<title>37.2 μs ± 3.2 μs</title>
<rect y="248" rx="5" height="22" width="7.992306203659099" fill="hsl(72, 100%, 80%)" stroke="hsl(72, 100%, 55%)" />
<g stroke="hsl(72, 100%, 40%)"><line x1="7.3075569622064345" x2="8.677055445111764" y1="259" y2="259" />
<line x1="7.3075569622064345" x2="7.3075569622064345" y1="253" y2="265" />
<line x1="8.677055445111764" x2="8.677055445111764" y1="253" y2="265" />
</g>
</g>
<g fill="hsl(90, 100%, 40%)">
<text y="297">local.parseStatusLocal</text>
<text y="297" x="326.9497078119608" text-anchor="end">1.52 ms</text>
</g>
<g>
<title>1.52 ms ± 103 μs</title>
<rect y="303" rx="5" height="22" width="326.9497078119608" fill="hsl(90, 100%, 80%)" stroke="hsl(90, 100%, 55%)" />
<g stroke="hsl(90, 100%, 40%)"><line x1="304.7574657169657" x2="349.1419499069559" y1="314" y2="314" />
<line x1="304.7574657169657" x2="304.7574657169657" y1="308" y2="320" />
<line x1="349.1419499069559" x2="349.1419499069559" y1="308" y2="320" />
</g>
</g>
<text fill="hsl(108, 100%, 40%)" y="352">local.parseStatusInfix 804  μs</text>
<g>
<title>804  μs ±  42 μs</title>
<rect y="358" rx="5" height="22" width="172.75190585887836" fill="hsl(108, 100%, 80%)" stroke="hsl(108, 100%, 55%)" />
<g stroke="hsl(108, 100%, 40%)"><line x1="163.6951561224862" x2="181.80865559527052" y1="369" y2="369" />
<line x1="163.6951561224862" x2="163.6951561224862" y1="363" y2="375" />
<line x1="181.80865559527052" x2="181.80865559527052" y1="363" y2="375" />
</g>
</g>
<g fill="hsl(126, 100%, 40%)">
<text y="407">local.parseStatusLocalInfix</text>
<text y="407" x="651.0971709231495" text-anchor="end">3.03 ms</text>
</g>
<g>
<title>3.03 ms ± 170 μs</title>
<rect y="413" rx="5" height="22" width="651.0971709231495" fill="hsl(126, 100%, 80%)" stroke="hsl(126, 100%, 55%)" />
<g stroke="hsl(126, 100%, 40%)"><line x1="614.6522666263065" x2="687.5420752199925" y1="424" y2="424" />
<line x1="614.6522666263065" x2="614.6522666263065" y1="418" y2="430" />
<line x1="687.5420752199925" x2="687.5420752199925" y1="418" y2="430" />
</g>
</g>
<text fill="hsl(144, 100%, 40%)" y="462">infix.parseStatus 35.9 μs</text>
<g>
<title>35.9 μs ± 2.6 μs</title>
<rect y="468" rx="5" height="22" width="7.707979703076349" fill="hsl(144, 100%, 80%)" stroke="hsl(144, 100%, 55%)" />
<g stroke="hsl(144, 100%, 40%)"><line x1="7.139828795890877" x2="8.27613061026182" y1="479" y2="479" />
<line x1="7.139828795890877" x2="7.139828795890877" y1="473" y2="485" />
<line x1="8.27613061026182" x2="8.27613061026182" y1="473" y2="485" />
</g>
</g>
<text fill="hsl(162, 100%, 40%)" y="517">infix.parseStatusLocal 53.3 μs</text>
<g>
<title>53.3 μs ± 3.4 μs</title>
<rect y="523" rx="5" height="22" width="11.454778717733614" fill="hsl(162, 100%, 80%)" stroke="hsl(162, 100%, 55%)" />
<g stroke="hsl(162, 100%, 40%)"><line x1="10.726391109758383" x2="12.183166325708845" y1="534" y2="534" />
<line x1="10.726391109758383" x2="10.726391109758383" y1="528" y2="540" />
<line x1="12.183166325708845" x2="12.183166325708845" y1="528" y2="540" />
</g>
</g>
<text fill="hsl(180, 100%, 40%)" y="572">infix.parseStatusInfix 240  μs</text>
<g>
<title>240  μs ±  22 μs</title>
<rect y="578" rx="5" height="22" width="51.58203596903336" fill="hsl(180, 100%, 80%)" stroke="hsl(180, 100%, 55%)" />
<g stroke="hsl(180, 100%, 40%)"><line x1="46.88994324375315" x2="56.274128694313575" y1="589" y2="589" />
<line x1="46.88994324375315" x2="46.88994324375315" y1="583" y2="595" />
<line x1="56.274128694313575" x2="56.274128694313575" y1="583" y2="595" />
</g>
</g>
<text fill="hsl(198, 100%, 40%)" y="627">infix.parseStatusLocalInfix 394  μs</text>
<g>
<title>394  μs ±  24 μs</title>
<rect y="633" rx="5" height="22" width="84.55055171676936" fill="hsl(198, 100%, 80%)" stroke="hsl(198, 100%, 55%)" />
<g stroke="hsl(198, 100%, 40%)"><line x1="79.48152600234529" x2="89.61957743119343" y1="644" y2="644" />
<line x1="79.48152600234529" x2="79.48152600234529" y1="638" y2="650" />
<line x1="89.61957743119343" x2="89.61957743119343" y1="638" y2="650" />
</g>
</g>
<text fill="hsl(216, 100%, 40%)" y="682">local_infix.parseStatus 38.5 μs</text>
<g>
<title>38.5 μs ± 3.3 μs</title>
<rect y="688" rx="5" height="22" width="8.271045673880677" fill="hsl(216, 100%, 80%)" stroke="hsl(216, 100%, 55%)" />
<g stroke="hsl(216, 100%, 40%)"><line x1="7.572970540362687" x2="8.969120807398667" y1="699" y2="699" />
<line x1="7.572970540362687" x2="7.572970540362687" y1="693" y2="705" />
<line x1="8.969120807398667" x2="8.969120807398667" y1="693" y2="705" />
</g>
</g>
<text fill="hsl(234, 100%, 40%)" y="737">local_infix.parseStatusLocal 53.8 μs</text>
<g>
<title>53.8 μs ± 2.3 μs</title>
<rect y="743" rx="5" height="22" width="11.560791845723815" fill="hsl(234, 100%, 80%)" stroke="hsl(234, 100%, 55%)" />
<g stroke="hsl(234, 100%, 40%)"><line x1="11.063942578774936" x2="12.057641112672693" y1="754" y2="754" />
<line x1="11.063942578774936" x2="11.063942578774936" y1="748" y2="760" />
<line x1="12.057641112672693" x2="12.057641112672693" y1="748" y2="760" />
</g>
</g>
<text fill="hsl(252, 100%, 40%)" y="792">local_infix.parseStatusInfix 904  μs</text>
<g>
<title>904  μs ±  85 μs</title>
<rect y="798" rx="5" height="22" width="194.24365297648598" fill="hsl(252, 100%, 80%)" stroke="hsl(252, 100%, 55%)" />
<g stroke="hsl(252, 100%, 40%)"><line x1="176.0376840279546" x2="212.44962192501734" y1="809" y2="809" />
<line x1="176.0376840279546" x2="176.0376840279546" y1="803" y2="815" />
<line x1="212.44962192501734" x2="212.44962192501734" y1="803" y2="815" />
</g>
</g>
<g fill="hsl(270, 100%, 40%)">
<text y="847">local_infix.parseStatusLocalInfix</text>
<text y="847" x="858.472239160629" text-anchor="end">4.00 ms</text>
</g>
<g>
<title>4.00 ms ± 380 μs</title>
<rect y="853" rx="5" height="22" width="858.472239160629" fill="hsl(270, 100%, 80%)" stroke="hsl(270, 100%, 55%)" />
<g stroke="hsl(270, 100%, 40%)"><line x1="776.944478321258" x2="940.0" y1="864" y2="864" />
<line x1="776.944478321258" x2="776.944478321258" y1="858" y2="870" />
<line x1="940.0" x2="940.0" y1="858" y2="870" />
</g>
</g>
<text fill="hsl(288, 100%, 40%)" y="902">formatStatus 21.1 μs</text>
<g>
<title>21.1 μs ± 1.6 μs</title>
<rect y="908" rx="5" height="22" width="4.539132521635583" fill="hsl(288, 100%, 80%)" stroke="hsl(288, 100%, 55%)" />
<g stroke="hsl(288, 100%, 40%)"><line x1="4.189940117511489" x2="4.888324925759677" y1="919" y2="919" />
<line x1="4.189940117511489" x2="4.189940117511489" y1="913" y2="925" />
<line x1="4.888324925759677" x2="4.888324925759677" y1="913" y2="925" />
</g>
</g>
<text fill="hsl(306, 100%, 40%)" y="957">formatStatus_compact 18.8 μs</text>
<g>
<title>18.8 μs ± 938 ns</title>
<rect y="963" rx="5" height="22" width="4.028251467449286" fill="hsl(306, 100%, 80%)" stroke="hsl(306, 100%, 55%)" />
<g stroke="hsl(306, 100%, 40%)"><line x1="3.8268718372832105" x2="4.229631097615362" y1="974" y2="974" />
<line x1="3.8268718372832105" x2="3.8268718372832105" y1="968" y2="980" />
<line x1="4.229631097615362" x2="4.229631097615362" y1="968" y2="980" />
</g>
</g>
<text fill="hsl(324, 100%, 40%)" y="1012">readFormattedStatus 138  μs</text>
<g>
<title>138  μs ± 6.3 μs</title>
<rect y="1018" rx="5" height="22" width="29.600730899622274" fill="hsl(324, 100%, 80%)" stroke="hsl(324, 100%, 55%)" />
<g stroke="hsl(324, 100%, 40%)"><line x1="28.250928330867644" x2="30.950533468376904" y1="1029" y2="1029" />
<line x1="28.250928330867644" x2="28.250928330867644" y1="1023" y2="1035" />
<line x1="30.950533468376904" x2="30.950533468376904" y1="1023" y2="1035" />
</g>
</g>
<text fill="hsl(342, 100%, 40%)" y="1067">readFormattedStatus_compact 139  μs</text>
<g>
<title>139  μs ±  13 μs</title>
<rect y="1073" rx="5" height="22" width="29.761629471090583" fill="hsl(342, 100%, 80%)" stroke="hsl(342, 100%, 55%)" />
<g stroke="hsl(342, 100%, 40%)"><line x1="26.902678430836545" x2="32.62058051134462" y1="1084" y2="1084" />
<line x1="26.902678430836545" x2="26.902678430836545" y1="1078" y2="1090" />
<line x1="32.62058051134462" x2="32.62058051134462" y1="1078" y2="1090" />
</g>
</g>
</g>
</svg>
