<svg xmlns="http://www.w3.org/2000/svg" height="337" width="960.0" font-size="16" font-family="sans-serif" stroke-width="2">
<g transform="translate(10.0 0)">
<g fill="hsl(0, 100%, 40%)">
<text y="22">parseStatus</text>
<text y="22" x="271.7943159349418" text-anchor="end">90.7 μs</text>
</g>
<g>
<title>90.7 μs ± 5.5 μs</title>
<rect y="28" rx="5" height="22" width="271.7943159349418" fill="hsl(0, 100%, 80%)" stroke="hsl(0, 100%, 55%)" />
<g stroke="hsl(0, 100%, 40%)"><line x1="255.24611075153462" x2="288.34252111834894" y1="39" y2="39" />
<line x1="255.24611075153462" x2="255.24611075153462" y1="33" y2="45" />
<line x1="288.34252111834894" x2="288.34252111834894" y1="33" y2="45" />
</g>
</g>
<g fill="hsl(60, 100%, 40%)">
<text y="77">parseStatusInfix</text>
<text y="77" x="875.130123925288" text-anchor="end">292  μs</text>
</g>
<g>
<title>292  μs ±  22 μs</title>
<rect y="83" rx="5" height="22" width="875.130123925288" fill="hsl(60, 100%, 80%)" stroke="hsl(60, 100%, 55%)" />
<g stroke="hsl(60, 100%, 40%)"><line x1="810.260247850576" x2="940.0" y1="94" y2="94" />
<line x1="810.260247850576" x2="810.260247850576" y1="88" y2="100" />
<line x1="940.0" x2="940.0" y1="88" y2="100" />
</g>
</g>
<text fill="hsl(120, 100%, 40%)" y="132">formatStatus 21.6 μs</text>
<g>
<title>21.6 μs ± 1.6 μs</title>
<rect y="138" rx="5" height="22" width="64.78089659852021" fill="hsl(120, 100%, 80%)" stroke="hsl(120, 100%, 55%)" />
<g stroke="hsl(120, 100%, 40%)"><line x1="60.02121517055979" x2="69.54057802648063" y1="149" y2="149" />
<line x1="60.02121517055979" x2="60.02121517055979" y1="143" y2="155" />
<line x1="69.54057802648063" x2="69.54057802648063" y1="143" y2="155" />
</g>
</g>
<text fill="hsl(180, 100%, 40%)" y="187">formatStatus_compact 19.3 μs</text>
<g>
<title>19.3 μs ± 1.4 μs</title>
<rect y="193" rx="5" height="22" width="57.86515488809982" fill="hsl(180, 100%, 80%)" stroke="hsl(180, 100%, 55%)" />
<g stroke="hsl(180, 100%, 40%)"><line x1="53.52483556800572" x2="62.20547420819393" y1="204" y2="204" />
<line x1="53.52483556800572" x2="53.52483556800572" y1="198" y2="210" />
<line x1="62.20547420819393" x2="62.20547420819393" y1="198" y2="210" />
</g>
</g>
<g fill="hsl(240, 100%, 40%)">
<text y="242">readFormattedStatus</text>
<text y="242" x="454.633639340118" text-anchor="end">152  μs</text>
</g>
<g>
<title>152  μs ± 5.7 μs</title>
<rect y="248" rx="5" height="22" width="454.633639340118" fill="hsl(240, 100%, 80%)" stroke="hsl(240, 100%, 55%)" />
<g stroke="hsl(240, 100%, 40%)"><line x1="437.5928847144422" x2="471.6743939657938" y1="259" y2="259" />
<line x1="437.5928847144422" x2="437.5928847144422" y1="253" y2="265" />
<line x1="471.6743939657938" x2="471.6743939657938" y1="253" y2="265" />
</g>
</g>
<g fill="hsl(300, 100%, 40%)">
<text y="297">readFormattedStatus_compact</text>
<text y="297" x="455.55222607369194" text-anchor="end">152  μs</text>
</g>
<g>
<title>152  μs ±  13 μs</title>
<rect y="303" rx="5" height="22" width="455.55222607369194" fill="hsl(300, 100%, 80%)" stroke="hsl(300, 100%, 55%)" />
<g stroke="hsl(300, 100%, 40%)"><line x1="415.703142615945" x2="495.40130953143887" y1="314" y2="314" />
<line x1="415.703142615945" x2="415.703142615945" y1="308" y2="320" />
<line x1="495.40130953143887" x2="495.40130953143887" y1="308" y2="320" />
</g>
</g>
</g>
</svg>
