<svg xmlns="http://www.w3.org/2000/svg" height="337" width="960.0" font-size="16" font-family="sans-serif" stroke-width="2">
<g transform="translate(10.0 0)">
<text fill="hsl(0, 100%, 40%)" y="22">parseStatus 42.5 μs</text>
<g>
<title>42.5 μs ± 4.0 μs</title>
<rect y="28" rx="5" height="22" width="150.21662718395976" fill="hsl(0, 100%, 80%)" stroke="hsl(0, 100%, 55%)" />
<g stroke="hsl(0, 100%, 40%)"><line x1="136.13791820855772" x2="164.2953361593618" y1="39" y2="39" />
<line x1="136.13791820855772" x2="136.13791820855772" y1="33" y2="45" />
<line x1="164.2953361593618" x2="164.2953361593618" y1="33" y2="45" />
</g>
</g>
<g fill="hsl(60, 100%, 40%)">
<text y="77">parseStatusInfix</text>
<text y="77" x="877.2288511696423" text-anchor="end">248  μs</text>
</g>
<g>
<title>248  μs ±  18 μs</title>
<rect y="83" rx="5" height="22" width="877.2288511696423" fill="hsl(60, 100%, 80%)" stroke="hsl(60, 100%, 55%)" />
<g stroke="hsl(60, 100%, 40%)"><line x1="814.4577023392847" x2="940.0" y1="94" y2="94" />
<line x1="814.4577023392847" x2="814.4577023392847" y1="88" y2="100" />
<line x1="940.0" x2="940.0" y1="88" y2="100" />
</g>
</g>
<text fill="hsl(120, 100%, 40%)" y="132">formatStatus 4.37 μs</text>
<g>
<title>4.37 μs ± 373 ns</title>
<rect y="138" rx="5" height="22" width="15.45657835177933" fill="hsl(120, 100%, 80%)" stroke="hsl(120, 100%, 55%)" />
<g stroke="hsl(120, 100%, 40%)"><line x1="14.136566576965874" x2="16.776590126592787" y1="149" y2="149" />
<line x1="14.136566576965874" x2="14.136566576965874" y1="143" y2="155" />
<line x1="16.776590126592787" x2="16.776590126592787" y1="143" y2="155" />
</g>
</g>
<text fill="hsl(180, 100%, 40%)" y="187">formatStatus_compact 5.79 μs</text>
<g>
<title>5.79 μs ± 546 ns</title>
<rect y="193" rx="5" height="22" width="20.458365178442353" fill="hsl(180, 100%, 80%)" stroke="hsl(180, 100%, 55%)" />
<g stroke="hsl(180, 100%, 40%)"><line x1="18.52733413744357" x2="22.389396219441135" y1="204" y2="204" />
<line x1="18.52733413744357" x2="18.52733413744357" y1="198" y2="210" />
<line x1="22.389396219441135" x2="22.389396219441135" y1="198" y2="210" />
</g>
</g>
<g fill="hsl(240, 100%, 40%)">
<text y="242">readFormattedStatus</text>
<text y="242" x="264.2247199270979" text-anchor="end">74.7 μs</text>
</g>
<g>
<title>74.7 μs ± 7.1 μs</title>
<rect y="248" rx="5" height="22" width="264.2247199270979" fill="hsl(240, 100%, 80%)" stroke="hsl(240, 100%, 55%)" />
<g stroke="hsl(240, 100%, 40%)"><line x1="239.26367635924248" x2="289.18576349495333" y1="259" y2="259" />
<line x1="239.26367635924248" x2="239.26367635924248" y1="253" y2="265" />
<line x1="289.18576349495333" x2="289.18576349495333" y1="253" y2="265" />
</g>
</g>
<g fill="hsl(300, 100%, 40%)">
<text y="297">readFormattedStatus_compact</text>
<text y="297" x="309.11766480573147" text-anchor="end">87.4 μs</text>
</g>
<g>
<title>87.4 μs ± 3.6 μs</title>
<rect y="303" rx="5" height="22" width="309.11766480573147" fill="hsl(300, 100%, 80%)" stroke="hsl(300, 100%, 55%)" />
<g stroke="hsl(300, 100%, 40%)"><line x1="296.3904774404605" x2="321.84485217100246" y1="314" y2="314" />
<line x1="296.3904774404605" x2="296.3904774404605" y1="308" y2="320" />
<line x1="321.84485217100246" x2="321.84485217100246" y1="308" y2="320" />
</g>
</g>
</g>
</svg>
