<svg xmlns="http://www.w3.org/2000/svg" height="447" width="960.0" font-size="16" font-family="sans-serif" stroke-width="2">
<g transform="translate(10.0 0)">
<text fill="hsl(0, 100%, 40%)" y="22">parseStatus 76.9 μs</text>
<g>
<title>76.9 μs ± 5.3 μs</title>
<rect y="28" rx="5" height="22" width="16.691932352520297" fill="hsl(0, 100%, 80%)" stroke="hsl(0, 100%, 55%)" />
<g stroke="hsl(0, 100%, 40%)"><line x1="15.543933100496735" x2="17.83993160454386" y1="39" y2="39" />
<line x1="15.543933100496735" x2="15.543933100496735" y1="33" y2="45" />
<line x1="17.83993160454386" x2="17.83993160454386" y1="33" y2="45" />
</g>
</g>
<g fill="hsl(45, 100%, 40%)">
<text y="77">parseStatusLocal</text>
<text y="77" x="332.4712501260394" text-anchor="end">1.53 ms</text>
</g>
<g>
<title>1.53 ms ±  97 μs</title>
<rect y="83" rx="5" height="22" width="332.4712501260394" fill="hsl(45, 100%, 80%)" stroke="hsl(45, 100%, 55%)" />
<g stroke="hsl(45, 100%, 40%)"><line x1="311.3634888733874" x2="353.57901137869146" y1="94" y2="94" />
<line x1="311.3634888733874" x2="311.3634888733874" y1="88" y2="100" />
<line x1="353.57901137869146" x2="353.57901137869146" y1="88" y2="100" />
</g>
</g>
<text fill="hsl(90, 100%, 40%)" y="132">parseStatusInfix 246  μs</text>
<g>
<title>246  μs ±  21 μs</title>
<rect y="138" rx="5" height="22" width="53.336004660604814" fill="hsl(90, 100%, 80%)" stroke="hsl(90, 100%, 55%)" />
<g stroke="hsl(90, 100%, 40%)"><line x1="48.68741737486964" x2="57.98459194633999" y1="149" y2="149" />
<line x1="48.68741737486964" x2="48.68741737486964" y1="143" y2="155" />
<line x1="57.98459194633999" x2="57.98459194633999" y1="143" y2="155" />
</g>
</g>
<g fill="hsl(135, 100%, 40%)">
<text y="187">parseStatusLocalInfix</text>
<text y="187" x="866.0829398822884" text-anchor="end">3.99 ms</text>
</g>
<g>
<title>3.99 ms ± 341 μs</title>
<rect y="193" rx="5" height="22" width="866.0829398822884" fill="hsl(135, 100%, 80%)" stroke="hsl(135, 100%, 55%)" />
<g stroke="hsl(135, 100%, 40%)"><line x1="792.1658797645769" x2="940.0" y1="204" y2="204" />
<line x1="792.1658797645769" x2="792.1658797645769" y1="198" y2="210" />
<line x1="940.0" x2="940.0" y1="198" y2="210" />
</g>
</g>
<text fill="hsl(180, 100%, 40%)" y="242">formatStatus 20.0 μs</text>
<g>
<title>20.0 μs ± 828 ns</title>
<rect y="248" rx="5" height="22" width="4.329542289473234" fill="hsl(180, 100%, 80%)" stroke="hsl(180, 100%, 55%)" />
<g stroke="hsl(180, 100%, 40%)"><line x1="4.149892570902294" x2="4.509192008044174" y1="259" y2="259" />
<line x1="4.149892570902294" x2="4.149892570902294" y1="253" y2="265" />
<line x1="4.509192008044174" x2="4.509192008044174" y1="253" y2="265" />
</g>
</g>
<text fill="hsl(225, 100%, 40%)" y="297">formatStatus_compact 19.0 μs</text>
<g>
<title>19.0 μs ± 1.9 μs</title>
<rect y="303" rx="5" height="22" width="4.11550700055997" fill="hsl(225, 100%, 80%)" stroke="hsl(225, 100%, 55%)" />
<g stroke="hsl(225, 100%, 40%)"><line x1="3.7083668831177627" x2="4.522647118002177" y1="314" y2="314" />
<line x1="3.7083668831177627" x2="3.7083668831177627" y1="308" y2="320" />
<line x1="4.522647118002177" x2="4.522647118002177" y1="308" y2="320" />
</g>
</g>
<text fill="hsl(270, 100%, 40%)" y="352">readFormattedStatus 143  μs</text>
<g>
<title>143  μs ±  11 μs</title>
<rect y="358" rx="5" height="22" width="30.931161390031868" fill="hsl(270, 100%, 80%)" stroke="hsl(270, 100%, 55%)" />
<g stroke="hsl(270, 100%, 40%)"><line x1="28.62552227062131" x2="33.236800509442425" y1="369" y2="369" />
<line x1="28.62552227062131" x2="28.62552227062131" y1="363" y2="375" />
<line x1="33.236800509442425" x2="33.236800509442425" y1="363" y2="375" />
</g>
</g>
<text fill="hsl(315, 100%, 40%)" y="407">readFormattedStatus_compact 141  μs</text>
<g>
<title>141  μs ±  12 μs</title>
<rect y="413" rx="5" height="22" width="30.550201057370536" fill="hsl(315, 100%, 80%)" stroke="hsl(315, 100%, 55%)" />
<g stroke="hsl(315, 100%, 40%)"><line x1="27.907288830909017" x2="33.193113283832055" y1="424" y2="424" />
<line x1="27.907288830909017" x2="27.907288830909017" y1="418" y2="430" />
<line x1="33.193113283832055" x2="33.193113283832055" y1="418" y2="430" />
</g>
</g>
</g>
</svg>
