<svg xmlns="http://www.w3.org/2000/svg" height="1107" width="960.0" font-size="16" font-family="sans-serif" stroke-width="2">
<g transform="translate(10.0 0)">
<text fill="hsl(0, 100%, 40%)" y="22">simple.parseStatus 77.7 μs</text>
<g>
<title>77.7 μs ± 5.7 μs</title>
<rect y="28" rx="5" height="22" width="20.227265123209857" fill="hsl(0, 100%, 80%)" stroke="hsl(0, 100%, 55%)" />
<g stroke="hsl(0, 100%, 40%)"><line x1="18.734307671202874" x2="21.72022257521684" y1="39" y2="39" />
<line x1="18.734307671202874" x2="18.734307671202874" y1="33" y2="45" />
<line x1="21.72022257521684" x2="21.72022257521684" y1="33" y2="45" />
</g>
</g>
<text fill="hsl(18, 100%, 40%)" y="77">simple.parseStatusLocal 80.6 μs</text>
<g>
<title>80.6 μs ± 6.1 μs</title>
<rect y="83" rx="5" height="22" width="20.97340574839038" fill="hsl(18, 100%, 80%)" stroke="hsl(18, 100%, 55%)" />
<g stroke="hsl(18, 100%, 40%)"><line x1="19.398351482233636" x2="22.548460014547125" y1="94" y2="94" />
<line x1="19.398351482233636" x2="19.398351482233636" y1="88" y2="100" />
<line x1="22.548460014547125" x2="22.548460014547125" y1="88" y2="100" />
</g>
</g>
<text fill="hsl(36, 100%, 40%)" y="132">simple.parseStatusInfix 177  μs</text>
<g>
<title>177  μs ±  16 μs</title>
<rect y="138" rx="5" height="22" width="46.06400524750109" fill="hsl(36, 100%, 80%)" stroke="hsl(36, 100%, 55%)" />
<g stroke="hsl(36, 100%, 40%)"><line x1="41.913649245852994" x2="50.21436124914919" y1="149" y2="149" />
<line x1="41.913649245852994" x2="41.913649245852994" y1="143" y2="155" />
<line x1="50.21436124914919" x2="50.21436124914919" y1="143" y2="155" />
</g>
</g>
<text fill="hsl(54, 100%, 40%)" y="187">simple.parseStatusLocalInfix 213  μs</text>
<g>
<title>213  μs ±  12 μs</title>
<rect y="193" rx="5" height="22" width="55.5180853512709" fill="hsl(54, 100%, 80%)" stroke="hsl(54, 100%, 55%)" />
<g stroke="hsl(54, 100%, 40%)"><line x1="52.28892785749199" x2="58.747242845049804" y1="204" y2="204" />
<line x1="52.28892785749199" x2="52.28892785749199" y1="198" y2="210" />
<line x1="58.747242845049804" x2="58.747242845049804" y1="198" y2="210" />
</g>
</g>
<text fill="hsl(72, 100%, 40%)" y="242">local.parseStatus 39.7 μs</text>
<g>
<title>39.7 μs ± 2.8 μs</title>
<rect y="248" rx="5" height="22" width="10.343231390677044" fill="hsl(72, 100%, 80%)" stroke="hsl(72, 100%, 55%)" />
<g stroke="hsl(72, 100%, 40%)"><line x1="9.623807497732999" x2="11.062655283621089" y1="259" y2="259" />
<line x1="9.623807497732999" x2="9.623807497732999" y1="253" y2="265" />
<line x1="11.062655283621089" x2="11.062655283621089" y1="253" y2="265" />
</g>
</g>
<g fill="hsl(90, 100%, 40%)">
<text y="297">local.parseStatusLocal</text>
<text y="297" x="398.4392125330631" text-anchor="end">1.53 ms</text>
</g>
<g>
<title>1.53 ms ± 108 μs</title>
<rect y="303" rx="5" height="22" width="398.4392125330631" fill="hsl(90, 100%, 80%)" stroke="hsl(90, 100%, 55%)" />
<g stroke="hsl(90, 100%, 40%)"><line x1="370.3729759785122" x2="426.50544908761395" y1="314" y2="314" />
<line x1="370.3729759785122" x2="370.3729759785122" y1="308" y2="320" />
<line x1="426.50544908761395" x2="426.50544908761395" y1="308" y2="320" />
</g>
</g>
<text fill="hsl(108, 100%, 40%)" y="352">local.parseStatusInfix 807  μs</text>
<g>
<title>807  μs ±  47 μs</title>
<rect y="358" rx="5" height="22" width="210.07090923385445" fill="hsl(108, 100%, 80%)" stroke="hsl(108, 100%, 55%)" />
<g stroke="hsl(108, 100%, 40%)"><line x1="197.92664625283751" x2="222.2151722148714" y1="369" y2="369" />
<line x1="197.92664625283751" x2="197.92664625283751" y1="363" y2="375" />
<line x1="222.2151722148714" x2="222.2151722148714" y1="363" y2="375" />
</g>
</g>
<g fill="hsl(126, 100%, 40%)">
<text y="407">local.parseStatusLocalInfix</text>
<text y="407" x="661.3785828052534" text-anchor="end">2.54 ms</text>
</g>
<g>
<title>2.54 ms ± 181 μs</title>
<rect y="413" rx="5" height="22" width="661.3785828052534" fill="hsl(126, 100%, 80%)" stroke="hsl(126, 100%, 55%)" />
<g stroke="hsl(126, 100%, 40%)"><line x1="614.3352572019428" x2="708.4219084085639" y1="424" y2="424" />
<line x1="614.3352572019428" x2="614.3352572019428" y1="418" y2="430" />
<line x1="708.4219084085639" x2="708.4219084085639" y1="418" y2="430" />
</g>
</g>
<text fill="hsl(144, 100%, 40%)" y="462">infix.parseStatus 36.4 μs</text>
<g>
<title>36.4 μs ± 3.4 μs</title>
<rect y="468" rx="5" height="22" width="9.485045870598237" fill="hsl(144, 100%, 80%)" stroke="hsl(144, 100%, 55%)" />
<g stroke="hsl(144, 100%, 40%)"><line x1="8.588156785872663" x2="10.38193495532381" y1="479" y2="479" />
<line x1="8.588156785872663" x2="8.588156785872663" y1="473" y2="485" />
<line x1="10.38193495532381" x2="10.38193495532381" y1="473" y2="485" />
</g>
</g>
<text fill="hsl(162, 100%, 40%)" y="517">infix.parseStatusLocal 44.5 μs</text>
<g>
<title>44.5 μs ± 3.5 μs</title>
<rect y="523" rx="5" height="22" width="11.589641506075962" fill="hsl(162, 100%, 80%)" stroke="hsl(162, 100%, 55%)" />
<g stroke="hsl(162, 100%, 40%)"><line x1="10.67640437462936" x2="12.502878637522564" y1="534" y2="534" />
<line x1="10.67640437462936" x2="10.67640437462936" y1="528" y2="540" />
<line x1="12.502878637522564" x2="12.502878637522564" y1="528" y2="540" />
</g>
</g>
<text fill="hsl(180, 100%, 40%)" y="572">infix.parseStatusInfix 245  μs</text>
<g>
<title>245  μs ±  22 μs</title>
<rect y="578" rx="5" height="22" width="63.880162003241345" fill="hsl(180, 100%, 80%)" stroke="hsl(180, 100%, 55%)" />
<g stroke="hsl(180, 100%, 40%)"><line x1="58.10122352985534" x2="69.65910047662736" y1="589" y2="589" />
<line x1="58.10122352985534" x2="58.10122352985534" y1="583" y2="595" />
<line x1="69.65910047662736" x2="69.65910047662736" y1="583" y2="595" />
</g>
</g>
<text fill="hsl(198, 100%, 40%)" y="627">infix.parseStatusLocalInfix 296  μs</text>
<g>
<title>296  μs ±  28 μs</title>
<rect y="633" rx="5" height="22" width="77.06613964759937" fill="hsl(198, 100%, 80%)" stroke="hsl(198, 100%, 55%)" />
<g stroke="hsl(198, 100%, 40%)"><line x1="69.7901620462204" x2="84.34211724897834" y1="644" y2="644" />
<line x1="69.7901620462204" x2="69.7901620462204" y1="638" y2="650" />
<line x1="84.34211724897834" x2="84.34211724897834" y1="638" y2="650" />
</g>
</g>
<text fill="hsl(216, 100%, 40%)" y="682">local_infix.parseStatus 37.8 μs</text>
<g>
<title>37.8 μs ± 2.6 μs</title>
<rect y="688" rx="5" height="22" width="9.829219754768843" fill="hsl(216, 100%, 80%)" stroke="hsl(216, 100%, 55%)" />
<g stroke="hsl(216, 100%, 40%)"><line x1="9.140420144219258" x2="10.518019365318429" y1="699" y2="699" />
<line x1="9.140420144219258" x2="9.140420144219258" y1="693" y2="705" />
<line x1="10.518019365318429" x2="10.518019365318429" y1="693" y2="705" />
</g>
</g>
<text fill="hsl(234, 100%, 40%)" y="737">local_infix.parseStatusLocal 45.3 μs</text>
<g>
<title>45.3 μs ± 3.1 μs</title>
<rect y="743" rx="5" height="22" width="11.79075215241035" fill="hsl(234, 100%, 80%)" stroke="hsl(234, 100%, 55%)" />
<g stroke="hsl(234, 100%, 40%)"><line x1="10.996132970660517" x2="12.585371334160184" y1="754" y2="754" />
<line x1="10.996132970660517" x2="10.996132970660517" y1="748" y2="760" />
<line x1="12.585371334160184" x2="12.585371334160184" y1="748" y2="760" />
</g>
</g>
<text fill="hsl(252, 100%, 40%)" y="792">local_infix.parseStatusInfix 906  μs</text>
<g>
<title>906  μs ±  85 μs</title>
<rect y="798" rx="5" height="22" width="235.93833975109368" fill="hsl(252, 100%, 80%)" stroke="hsl(252, 100%, 55%)" />
<g stroke="hsl(252, 100%, 40%)"><line x1="213.8133144482872" x2="258.06336505390016" y1="809" y2="809" />
<line x1="213.8133144482872" x2="213.8133144482872" y1="803" y2="815" />
<line x1="258.06336505390016" x2="258.06336505390016" y1="803" y2="815" />
</g>
</g>
<g fill="hsl(270, 100%, 40%)">
<text y="847">local_infix.parseStatusLocalInfix</text>
<text y="847" x="883.4018842346183" text-anchor="end">3.39 ms</text>
</g>
<g>
<title>3.39 ms ± 217 μs</title>
<rect y="853" rx="5" height="22" width="883.4018842346183" fill="hsl(270, 100%, 80%)" stroke="hsl(270, 100%, 55%)" />
<g stroke="hsl(270, 100%, 40%)"><line x1="826.8037684692365" x2="940.0" y1="864" y2="864" />
<line x1="826.8037684692365" x2="826.8037684692365" y1="858" y2="870" />
<line x1="940.0" x2="940.0" y1="858" y2="870" />
</g>
</g>
<text fill="hsl(288, 100%, 40%)" y="902">formatStatus 21.6 μs</text>
<g>
<title>21.6 μs ± 864 ns</title>
<rect y="908" rx="5" height="22" width="5.618997783844993" fill="hsl(288, 100%, 80%)" stroke="hsl(288, 100%, 55%)" />
<g stroke="hsl(288, 100%, 40%)"><line x1="5.394094365740037" x2="5.843901201949948" y1="919" y2="919" />
<line x1="5.394094365740037" x2="5.394094365740037" y1="913" y2="925" />
<line x1="5.843901201949948" x2="5.843901201949948" y1="913" y2="925" />
</g>
</g>
<text fill="hsl(306, 100%, 40%)" y="957">formatStatus_compact 19.2 μs</text>
<g>
<title>19.2 μs ± 1.5 μs</title>
<rect y="963" rx="5" height="22" width="4.992088583064651" fill="hsl(306, 100%, 80%)" stroke="hsl(306, 100%, 55%)" />
<g stroke="hsl(306, 100%, 40%)"><line x1="4.591405532015378" x2="5.392771634113923" y1="974" y2="974" />
<line x1="4.591405532015378" x2="4.591405532015378" y1="968" y2="980" />
<line x1="5.392771634113923" x2="5.392771634113923" y1="968" y2="980" />
</g>
</g>
<text fill="hsl(324, 100%, 40%)" y="1012">readFormattedStatus 141  μs</text>
<g>
<title>141  μs ± 6.2 μs</title>
<rect y="1018" rx="5" height="22" width="36.61610726131954" fill="hsl(324, 100%, 80%)" stroke="hsl(324, 100%, 55%)" />
<g stroke="hsl(324, 100%, 40%)"><line x1="35.00504408626675" x2="38.22717043637233" y1="1029" y2="1029" />
<line x1="35.00504408626675" x2="35.00504408626675" y1="1023" y2="1035" />
<line x1="38.22717043637233" x2="38.22717043637233" y1="1023" y2="1035" />
</g>
</g>
<text fill="hsl(342, 100%, 40%)" y="1067">readFormattedStatus_compact 140  μs</text>
<g>
<title>140  μs ±  12 μs</title>
<rect y="1073" rx="5" height="22" width="36.41037043790476" fill="hsl(342, 100%, 80%)" stroke="hsl(342, 100%, 55%)" />
<g stroke="hsl(342, 100%, 40%)"><line x1="33.251976223067516" x2="39.568764652742004" y1="1084" y2="1084" />
<line x1="33.251976223067516" x2="33.251976223067516" y1="1078" y2="1090" />
<line x1="39.568764652742004" x2="39.568764652742004" y1="1078" y2="1090" />
</g>
</g>
</g>
</svg>
