<svg xmlns="http://www.w3.org/2000/svg" height="282" width="960.0" font-size="16" font-family="sans-serif" stroke-width="2">
<g transform="translate(10.0 0)">
<g fill="hsl(0, 100%, 40%)">
<text y="22">parseStatus</text>
<text y="22" x="394.6196464223667" text-anchor="end">78.8 μs</text>
</g>
<g>
<title>78.8 μs ± 5.6 μs</title>
<rect y="28" rx="5" height="22" width="394.6196464223667" fill="hsl(0, 100%, 80%)" stroke="hsl(0, 100%, 55%)" />
<g stroke="hsl(0, 100%, 40%)"><line x1="366.7930181711922" x2="422.4462746735412" y1="39" y2="39" />
<line x1="366.7930181711922" x2="366.7930181711922" y1="33" y2="45" />
<line x1="422.4462746735412" x2="422.4462746735412" y1="33" y2="45" />
</g>
</g>
<g fill="hsl(72, 100%, 40%)">
<text y="77">formatStatus</text>
<text y="77" x="167.20856855380495" text-anchor="end">33.4 μs</text>
</g>
<g>
<title>33.4 μs ± 920 ns</title>
<rect y="83" rx="5" height="22" width="167.20856855380495" fill="hsl(72, 100%, 80%)" stroke="hsl(72, 100%, 55%)" />
<g stroke="hsl(72, 100%, 40%)"><line x1="162.59612255739947" x2="171.82101455021044" y1="94" y2="94" />
<line x1="162.59612255739947" x2="162.59612255739947" y1="88" y2="100" />
<line x1="171.82101455021044" x2="171.82101455021044" y1="88" y2="100" />
</g>
</g>
<text fill="hsl(144, 100%, 40%)" y="132">formatStatus_compact 25.9 μs</text>
<g>
<title>25.9 μs ± 2.1 μs</title>
<rect y="138" rx="5" height="22" width="130.01331901820078" fill="hsl(144, 100%, 80%)" stroke="hsl(144, 100%, 55%)" />
<g stroke="hsl(144, 100%, 40%)"><line x1="119.41109522566533" x2="140.61554281073623" y1="149" y2="149" />
<line x1="119.41109522566533" x2="119.41109522566533" y1="143" y2="155" />
<line x1="140.61554281073623" x2="140.61554281073623" y1="143" y2="155" />
</g>
</g>
<g fill="hsl(216, 100%, 40%)">
<text y="187">readFormattedStatus</text>
<text y="187" x="879.736652651232" text-anchor="end">176  μs</text>
</g>
<g>
<title>176  μs ±  12 μs</title>
<rect y="193" rx="5" height="22" width="879.736652651232" fill="hsl(216, 100%, 80%)" stroke="hsl(216, 100%, 55%)" />
<g stroke="hsl(216, 100%, 40%)"><line x1="819.473305302464" x2="940.0" y1="204" y2="204" />
<line x1="819.473305302464" x2="819.473305302464" y1="198" y2="210" />
<line x1="940.0" x2="940.0" y1="198" y2="210" />
</g>
</g>
<g fill="hsl(288, 100%, 40%)">
<text y="242">readFormattedStatus_compact</text>
<text y="242" x="859.8350289400382" text-anchor="end">172  μs</text>
</g>
<g>
<title>172  μs ±  15 μs</title>
<rect y="248" rx="5" height="22" width="859.8350289400382" fill="hsl(288, 100%, 80%)" stroke="hsl(288, 100%, 55%)" />
<g stroke="hsl(288, 100%, 40%)"><line x1="784.5246884594484" x2="935.1453694206281" y1="259" y2="259" />
<line x1="784.5246884594484" x2="784.5246884594484" y1="253" y2="265" />
<line x1="935.1453694206281" x2="935.1453694206281" y1="253" y2="265" />
</g>
</g>
</g>
</svg>
