<svg xmlns="http://www.w3.org/2000/svg" height="1107" width="960.0" font-size="16" font-family="sans-serif" stroke-width="2">
<g transform="translate(10.0 0)">
<text fill="hsl(0, 100%, 40%)" y="22">simple.parseStatus 70.2 μs</text>
<g>
<title>70.2 μs ± 3.0 μs</title>
<rect y="28" rx="5" height="22" width="13.976311115182405" fill="hsl(0, 100%, 80%)" stroke="hsl(0, 100%, 55%)" />
<g stroke="hsl(0, 100%, 40%)"><line x1="13.385554048479467" x2="14.567068181885343" y1="39" y2="39" />
<line x1="13.385554048479467" x2="13.385554048479467" y1="33" y2="45" />
<line x1="14.567068181885343" x2="14.567068181885343" y1="33" y2="45" />
</g>
</g>
<text fill="hsl(18, 100%, 40%)" y="77">simple.parseStatusLocal 81.0 μs</text>
<g>
<title>81.0 μs ± 6.7 μs</title>
<rect y="83" rx="5" height="22" width="16.138512203365188" fill="hsl(18, 100%, 80%)" stroke="hsl(18, 100%, 55%)" />
<g stroke="hsl(18, 100%, 40%)"><line x1="14.795074694089765" x2="17.48194971264061" y1="94" y2="94" />
<line x1="14.795074694089765" x2="14.795074694089765" y1="88" y2="100" />
<line x1="17.48194971264061" x2="17.48194971264061" y1="88" y2="100" />
</g>
</g>
<text fill="hsl(36, 100%, 40%)" y="132">simple.parseStatusInfix 179  μs</text>
<g>
<title>179  μs ±  12 μs</title>
<rect y="138" rx="5" height="22" width="35.67205079008253" fill="hsl(36, 100%, 80%)" stroke="hsl(36, 100%, 55%)" />
<g stroke="hsl(36, 100%, 40%)"><line x1="33.27211738841252" x2="38.07198419175254" y1="149" y2="149" />
<line x1="33.27211738841252" x2="33.27211738841252" y1="143" y2="155" />
<line x1="38.07198419175254" x2="38.07198419175254" y1="143" y2="155" />
</g>
</g>
<text fill="hsl(54, 100%, 40%)" y="187">simple.parseStatusLocalInfix 305  μs</text>
<g>
<title>305  μs ±  27 μs</title>
<rect y="193" rx="5" height="22" width="60.732775473322505" fill="hsl(54, 100%, 80%)" stroke="hsl(54, 100%, 55%)" />
<g stroke="hsl(54, 100%, 40%)"><line x1="55.334183227315584" x2="66.13136771932942" y1="204" y2="204" />
<line x1="55.334183227315584" x2="55.334183227315584" y1="198" y2="210" />
<line x1="66.13136771932942" x2="66.13136771932942" y1="198" y2="210" />
</g>
</g>
<text fill="hsl(72, 100%, 40%)" y="242">local.parseStatus 32.9 μs</text>
<g>
<title>32.9 μs ± 3.0 μs</title>
<rect y="248" rx="5" height="22" width="6.559082815478893" fill="hsl(72, 100%, 80%)" stroke="hsl(72, 100%, 55%)" />
<g stroke="hsl(72, 100%, 40%)"><line x1="5.963752697810241" x2="7.154412933147546" y1="259" y2="259" />
<line x1="5.963752697810241" x2="5.963752697810241" y1="253" y2="265" />
<line x1="7.154412933147546" x2="7.154412933147546" y1="253" y2="265" />
</g>
</g>
<g fill="hsl(90, 100%, 40%)">
<text y="297">local.parseStatusLocal</text>
<text y="297" x="283.86641142647346" text-anchor="end">1.42 ms</text>
</g>
<g>
<title>1.42 ms ± 109 μs</title>
<rect y="303" rx="5" height="22" width="283.86641142647346" fill="hsl(90, 100%, 80%)" stroke="hsl(90, 100%, 55%)" />
<g stroke="hsl(90, 100%, 40%)"><line x1="262.1879808570516" x2="305.5448419958953" y1="314" y2="314" />
<line x1="262.1879808570516" x2="262.1879808570516" y1="308" y2="320" />
<line x1="305.5448419958953" x2="305.5448419958953" y1="308" y2="320" />
</g>
</g>
<text fill="hsl(108, 100%, 40%)" y="352">local.parseStatusInfix 1.03 ms</text>
<g>
<title>1.03 ms ±  85 μs</title>
<rect y="358" rx="5" height="22" width="205.6718551961221" fill="hsl(108, 100%, 80%)" stroke="hsl(108, 100%, 55%)" />
<g stroke="hsl(108, 100%, 40%)"><line x1="188.821082336471" x2="222.5226280557732" y1="369" y2="369" />
<line x1="188.821082336471" x2="188.821082336471" y1="363" y2="375" />
<line x1="222.5226280557732" x2="222.5226280557732" y1="363" y2="375" />
</g>
</g>
<g fill="hsl(126, 100%, 40%)">
<text y="407">local.parseStatusLocalInfix</text>
<text y="407" x="673.9828565129776" text-anchor="end">3.38 ms</text>
</g>
<g>
<title>3.38 ms ± 247 μs</title>
<rect y="413" rx="5" height="22" width="673.9828565129776" fill="hsl(126, 100%, 80%)" stroke="hsl(126, 100%, 55%)" />
<g stroke="hsl(126, 100%, 40%)"><line x1="624.8413365079298" x2="723.1243765180254" y1="424" y2="424" />
<line x1="624.8413365079298" x2="624.8413365079298" y1="418" y2="430" />
<line x1="723.1243765180254" x2="723.1243765180254" y1="418" y2="430" />
</g>
</g>
<text fill="hsl(144, 100%, 40%)" y="462">infix.parseStatus 27.1 μs</text>
<g>
<title>27.1 μs ± 2.3 μs</title>
<rect y="468" rx="5" height="22" width="5.3960226439679415" fill="hsl(144, 100%, 80%)" stroke="hsl(144, 100%, 55%)" />
<g stroke="hsl(144, 100%, 40%)"><line x1="4.943568694683396" x2="5.848476593252487" y1="479" y2="479" />
<line x1="4.943568694683396" x2="4.943568694683396" y1="473" y2="485" />
<line x1="5.848476593252487" x2="5.848476593252487" y1="473" y2="485" />
</g>
</g>
<text fill="hsl(162, 100%, 40%)" y="517">infix.parseStatusLocal 41.0 μs</text>
<g>
<title>41.0 μs ± 3.7 μs</title>
<rect y="523" rx="5" height="22" width="8.166291498007158" fill="hsl(162, 100%, 80%)" stroke="hsl(162, 100%, 55%)" />
<g stroke="hsl(162, 100%, 40%)"><line x1="7.4382528596844075" x2="8.89433013632991" y1="534" y2="534" />
<line x1="7.4382528596844075" x2="7.4382528596844075" y1="528" y2="540" />
<line x1="8.89433013632991" x2="8.89433013632991" y1="528" y2="540" />
</g>
</g>
<text fill="hsl(180, 100%, 40%)" y="572">infix.parseStatusInfix 256  μs</text>
<g>
<title>256  μs ±  23 μs</title>
<rect y="578" rx="5" height="22" width="51.077208850728816" fill="hsl(180, 100%, 80%)" stroke="hsl(180, 100%, 55%)" />
<g stroke="hsl(180, 100%, 40%)"><line x1="46.487116716178285" x2="55.66730098527935" y1="589" y2="589" />
<line x1="46.487116716178285" x2="46.487116716178285" y1="583" y2="595" />
<line x1="55.66730098527935" x2="55.66730098527935" y1="583" y2="595" />
</g>
</g>
<text fill="hsl(198, 100%, 40%)" y="627">infix.parseStatusLocalInfix 428  μs</text>
<g>
<title>428  μs ±  24 μs</title>
<rect y="633" rx="5" height="22" width="85.30387811601287" fill="hsl(198, 100%, 80%)" stroke="hsl(198, 100%, 55%)" />
<g stroke="hsl(198, 100%, 40%)"><line x1="80.54766884932296" x2="90.06008738270278" y1="644" y2="644" />
<line x1="80.54766884932296" x2="80.54766884932296" y1="638" y2="650" />
<line x1="90.06008738270278" x2="90.06008738270278" y1="638" y2="650" />
</g>
</g>
<text fill="hsl(216, 100%, 40%)" y="682">local_infix.parseStatus 30.5 μs</text>
<g>
<title>30.5 μs ± 2.9 μs</title>
<rect y="688" rx="5" height="22" width="6.072222813247782" fill="hsl(216, 100%, 80%)" stroke="hsl(216, 100%, 55%)" />
<g stroke="hsl(216, 100%, 40%)"><line x1="5.4969502931368" x2="6.647495333358764" y1="699" y2="699" />
<line x1="5.4969502931368" x2="5.4969502931368" y1="693" y2="705" />
<line x1="6.647495333358764" x2="6.647495333358764" y1="693" y2="705" />
</g>
</g>
<text fill="hsl(234, 100%, 40%)" y="737">local_infix.parseStatusLocal 42.9 μs</text>
<g>
<title>42.9 μs ± 2.2 μs</title>
<rect y="743" rx="5" height="22" width="8.553517118488362" fill="hsl(234, 100%, 80%)" stroke="hsl(234, 100%, 55%)" />
<g stroke="hsl(234, 100%, 40%)"><line x1="8.110362263953752" x2="8.996671973022972" y1="754" y2="754" />
<line x1="8.110362263953752" x2="8.110362263953752" y1="748" y2="760" />
<line x1="8.996671973022972" x2="8.996671973022972" y1="748" y2="760" />
</g>
</g>
<text fill="hsl(252, 100%, 40%)" y="792">local_infix.parseStatusInfix 1.18 ms</text>
<g>
<title>1.18 ms ± 101 μs</title>
<rect y="798" rx="5" height="22" width="235.5817508097697" fill="hsl(252, 100%, 80%)" stroke="hsl(252, 100%, 55%)" />
<g stroke="hsl(252, 100%, 40%)"><line x1="215.54971580219166" x2="255.61378581734772" y1="809" y2="809" />
<line x1="215.54971580219166" x2="215.54971580219166" y1="803" y2="815" />
<line x1="255.61378581734772" x2="255.61378581734772" y1="803" y2="815" />
</g>
</g>
<g fill="hsl(270, 100%, 40%)">
<text y="847">local_infix.parseStatusLocalInfix</text>
<text y="847" x="866.8184737936568" text-anchor="end">4.35 ms</text>
</g>
<g>
<title>4.35 ms ± 367 μs</title>
<rect y="853" rx="5" height="22" width="866.8184737936568" fill="hsl(270, 100%, 80%)" stroke="hsl(270, 100%, 55%)" />
<g stroke="hsl(270, 100%, 40%)"><line x1="793.6369475873137" x2="940.0" y1="864" y2="864" />
<line x1="793.6369475873137" x2="793.6369475873137" y1="858" y2="870" />
<line x1="940.0" x2="940.0" y1="858" y2="870" />
</g>
</g>
<text fill="hsl(288, 100%, 40%)" y="902">formatStatus 18.6 μs</text>
<g>
<title>18.6 μs ± 1.8 μs</title>
<rect y="908" rx="5" height="22" width="3.6954981034103858" fill="hsl(288, 100%, 80%)" stroke="hsl(288, 100%, 55%)" />
<g stroke="hsl(288, 100%, 40%)"><line x1="3.3373012765658725" x2="4.053694930254899" y1="919" y2="919" />
<line x1="3.3373012765658725" x2="3.3373012765658725" y1="913" y2="925" />
<line x1="4.053694930254899" x2="4.053694930254899" y1="913" y2="925" />
</g>
</g>
<text fill="hsl(306, 100%, 40%)" y="957">formatStatus_compact 16.8 μs</text>
<g>
<title>16.8 μs ± 1.6 μs</title>
<rect y="963" rx="5" height="22" width="3.351970259877918" fill="hsl(306, 100%, 80%)" stroke="hsl(306, 100%, 55%)" />
<g stroke="hsl(306, 100%, 40%)"><line x1="3.028023106601678" x2="3.675917413154158" y1="974" y2="974" />
<line x1="3.028023106601678" x2="3.028023106601678" y1="968" y2="980" />
<line x1="3.675917413154158" x2="3.675917413154158" y1="968" y2="980" />
</g>
</g>
<text fill="hsl(324, 100%, 40%)" y="1012">readFormattedStatus 129  μs</text>
<g>
<title>129  μs ± 9.9 μs</title>
<rect y="1018" rx="5" height="22" width="25.727352243264914" fill="hsl(324, 100%, 80%)" stroke="hsl(324, 100%, 55%)" />
<g stroke="hsl(324, 100%, 40%)"><line x1="23.746282898840988" x2="27.70842158768884" y1="1029" y2="1029" />
<line x1="23.746282898840988" x2="23.746282898840988" y1="1023" y2="1035" />
<line x1="27.70842158768884" x2="27.70842158768884" y1="1023" y2="1035" />
</g>
</g>
<text fill="hsl(342, 100%, 40%)" y="1067">readFormattedStatus_compact 117  μs</text>
<g>
<title>117  μs ± 4.2 μs</title>
<rect y="1073" rx="5" height="22" width="23.330371324098948" fill="hsl(342, 100%, 80%)" stroke="hsl(342, 100%, 55%)" />
<g stroke="hsl(342, 100%, 40%)"><line x1="22.485933040207527" x2="24.17480960799037" y1="1084" y2="1084" />
<line x1="22.485933040207527" x2="22.485933040207527" y1="1078" y2="1090" />
<line x1="24.17480960799037" x2="24.17480960799037" y1="1078" y2="1090" />
</g>
</g>
</g>
</svg>
