<svg xmlns="http://www.w3.org/2000/svg" height="337" width="960.0" font-size="16" font-family="sans-serif" stroke-width="2">
<g transform="translate(10.0 0)">
<g fill="hsl(0, 100%, 40%)">
<text y="22">parseStatus</text>
<text y="22" x="256.10315692635066" text-anchor="end">78.6 μs</text>
</g>
<g>
<title>78.6 μs ± 6.4 μs</title>
<rect y="28" rx="5" height="22" width="256.10315692635066" fill="hsl(0, 100%, 80%)" stroke="hsl(0, 100%, 55%)" />
<g stroke="hsl(0, 100%, 40%)"><line x1="235.31450625041833" x2="276.891807602283" y1="39" y2="39" />
<line x1="235.31450625041833" x2="235.31450625041833" y1="33" y2="45" />
<line x1="276.891807602283" x2="276.891807602283" y1="33" y2="45" />
</g>
</g>
<g fill="hsl(60, 100%, 40%)">
<text y="77">parseStatusInfix</text>
<text y="77" x="863.1732633803226" text-anchor="end">265  μs</text>
</g>
<g>
<title>265  μs ±  24 μs</title>
<rect y="83" rx="5" height="22" width="863.1732633803226" fill="hsl(60, 100%, 80%)" stroke="hsl(60, 100%, 55%)" />
<g stroke="hsl(60, 100%, 40%)"><line x1="786.3465267606452" x2="940.0" y1="94" y2="94" />
<line x1="786.3465267606452" x2="786.3465267606452" y1="88" y2="100" />
<line x1="940.0" x2="940.0" y1="88" y2="100" />
</g>
</g>
<text fill="hsl(120, 100%, 40%)" y="132">formatStatus 21.3 μs</text>
<g>
<title>21.3 μs ± 1.7 μs</title>
<rect y="138" rx="5" height="22" width="69.20544577262574" fill="hsl(120, 100%, 80%)" stroke="hsl(120, 100%, 55%)" />
<g stroke="hsl(120, 100%, 40%)"><line x1="63.78298776862266" x2="74.62790377662881" y1="149" y2="149" />
<line x1="63.78298776862266" x2="63.78298776862266" y1="143" y2="155" />
<line x1="74.62790377662881" x2="74.62790377662881" y1="143" y2="155" />
</g>
</g>
<text fill="hsl(180, 100%, 40%)" y="187">formatStatus_compact 19.1 μs</text>
<g>
<title>19.1 μs ± 1.4 μs</title>
<rect y="193" rx="5" height="22" width="62.283400344475915" fill="hsl(180, 100%, 80%)" stroke="hsl(180, 100%, 55%)" />
<g stroke="hsl(180, 100%, 40%)"><line x1="57.71957623491861" x2="66.84722445403321" y1="204" y2="204" />
<line x1="57.71957623491861" x2="57.71957623491861" y1="198" y2="210" />
<line x1="66.84722445403321" x2="66.84722445403321" y1="198" y2="210" />
</g>
</g>
<g fill="hsl(240, 100%, 40%)">
<text y="242">readFormattedStatus</text>
<text y="242" x="475.959859660815" text-anchor="end">146  μs</text>
</g>
<g>
<title>146  μs ± 7.5 μs</title>
<rect y="248" rx="5" height="22" width="475.959859660815" fill="hsl(240, 100%, 80%)" stroke="hsl(240, 100%, 55%)" />
<g stroke="hsl(240, 100%, 40%)"><line x1="451.583546889152" x2="500.33617243247807" y1="259" y2="259" />
<line x1="451.583546889152" x2="451.583546889152" y1="253" y2="265" />
<line x1="500.33617243247807" x2="500.33617243247807" y1="253" y2="265" />
</g>
</g>
<g fill="hsl(300, 100%, 40%)">
<text y="297">readFormattedStatus_compact</text>
<text y="297" x="464.6038435204411" text-anchor="end">143  μs</text>
</g>
<g>
<title>143  μs ±  13 μs</title>
<rect y="303" rx="5" height="22" width="464.6038435204411" fill="hsl(300, 100%, 80%)" stroke="hsl(300, 100%, 55%)" />
<g stroke="hsl(300, 100%, 40%)"><line x1="423.2630181751551" x2="505.9446688657271" y1="314" y2="314" />
<line x1="423.2630181751551" x2="423.2630181751551" y1="308" y2="320" />
<line x1="505.9446688657271" x2="505.9446688657271" y1="308" y2="320" />
</g>
</g>
</g>
</svg>
