<svg xmlns="http://www.w3.org/2000/svg" height="1107" width="960.0" font-size="16" font-family="sans-serif" stroke-width="2">
<g transform="translate(10.0 0)">
<text fill="hsl(0, 100%, 40%)" y="22">simple.parseStatus 76.4 μs</text>
<g>
<title>76.4 μs ± 5.8 μs</title>
<rect y="28" rx="5" height="22" width="14.671278803033713" fill="hsl(0, 100%, 80%)" stroke="hsl(0, 100%, 55%)" />
<g stroke="hsl(0, 100%, 40%)"><line x1="13.560776766381666" x2="15.78178083968576" y1="39" y2="39" />
<line x1="13.560776766381666" x2="13.560776766381666" y1="33" y2="45" />
<line x1="15.78178083968576" x2="15.78178083968576" y1="33" y2="45" />
</g>
</g>
<text fill="hsl(18, 100%, 40%)" y="77">simple.parseStatusLocal 88.2 μs</text>
<g>
<title>88.2 μs ± 3.1 μs</title>
<rect y="83" rx="5" height="22" width="16.923196018158617" fill="hsl(18, 100%, 80%)" stroke="hsl(18, 100%, 55%)" />
<g stroke="hsl(18, 100%, 40%)"><line x1="16.333371422039136" x2="17.513020614278098" y1="94" y2="94" />
<line x1="16.333371422039136" x2="16.333371422039136" y1="88" y2="100" />
<line x1="17.513020614278098" x2="17.513020614278098" y1="88" y2="100" />
</g>
</g>
<text fill="hsl(36, 100%, 40%)" y="132">simple.parseStatusInfix 188  μs</text>
<g>
<title>188  μs ±  13 μs</title>
<rect y="138" rx="5" height="22" width="36.08187471537346" fill="hsl(36, 100%, 80%)" stroke="hsl(36, 100%, 55%)" />
<g stroke="hsl(36, 100%, 40%)"><line x1="33.652887172834475" x2="38.51086225791244" y1="149" y2="149" />
<line x1="33.652887172834475" x2="33.652887172834475" y1="143" y2="155" />
<line x1="38.51086225791244" x2="38.51086225791244" y1="143" y2="155" />
</g>
</g>
<text fill="hsl(54, 100%, 40%)" y="187">simple.parseStatusLocalInfix 325  μs</text>
<g>
<title>325  μs ±  24 μs</title>
<rect y="193" rx="5" height="22" width="62.44675364108706" fill="hsl(54, 100%, 80%)" stroke="hsl(54, 100%, 55%)" />
<g stroke="hsl(54, 100%, 40%)"><line x1="57.92349847912582" x2="66.97000880304829" y1="204" y2="204" />
<line x1="57.92349847912582" x2="57.92349847912582" y1="198" y2="210" />
<line x1="66.97000880304829" x2="66.97000880304829" y1="198" y2="210" />
</g>
</g>
<text fill="hsl(72, 100%, 40%)" y="242">local.parseStatus 38.2 μs</text>
<g>
<title>38.2 μs ± 2.7 μs</title>
<rect y="248" rx="5" height="22" width="7.324571726349138" fill="hsl(72, 100%, 80%)" stroke="hsl(72, 100%, 55%)" />
<g stroke="hsl(72, 100%, 40%)"><line x1="6.8026517489831555" x2="7.84649170371512" y1="259" y2="259" />
<line x1="6.8026517489831555" x2="6.8026517489831555" y1="253" y2="265" />
<line x1="7.84649170371512" x2="7.84649170371512" y1="253" y2="265" />
</g>
</g>
<g fill="hsl(90, 100%, 40%)">
<text y="297">local.parseStatusLocal</text>
<text y="297" x="306.2256471725684" text-anchor="end">1.60 ms</text>
</g>
<g>
<title>1.60 ms ±  86 μs</title>
<rect y="303" rx="5" height="22" width="306.2256471725684" fill="hsl(90, 100%, 80%)" stroke="hsl(90, 100%, 55%)" />
<g stroke="hsl(90, 100%, 40%)"><line x1="289.6441674005399" x2="322.8071269445969" y1="314" y2="314" />
<line x1="289.6441674005399" x2="289.6441674005399" y1="308" y2="320" />
<line x1="322.8071269445969" x2="322.8071269445969" y1="308" y2="320" />
</g>
</g>
<text fill="hsl(108, 100%, 40%)" y="352">local.parseStatusInfix 1.05 ms</text>
<g>
<title>1.05 ms ±  85 μs</title>
<rect y="358" rx="5" height="22" width="200.75111757894052" fill="hsl(108, 100%, 80%)" stroke="hsl(108, 100%, 55%)" />
<g stroke="hsl(108, 100%, 40%)"><line x1="184.43710259299354" x2="217.0651325648875" y1="369" y2="369" />
<line x1="184.43710259299354" x2="184.43710259299354" y1="363" y2="375" />
<line x1="217.0651325648875" x2="217.0651325648875" y1="363" y2="375" />
</g>
</g>
<g fill="hsl(126, 100%, 40%)">
<text y="407">local.parseStatusLocalInfix</text>
<text y="407" x="676.1175556642336" text-anchor="end">3.52 ms</text>
</g>
<g>
<title>3.52 ms ± 231 μs</title>
<rect y="413" rx="5" height="22" width="676.1175556642336" fill="hsl(126, 100%, 80%)" stroke="hsl(126, 100%, 55%)" />
<g stroke="hsl(126, 100%, 40%)"><line x1="631.7697140689894" x2="720.4653972594778" y1="424" y2="424" />
<line x1="631.7697140689894" x2="631.7697140689894" y1="418" y2="430" />
<line x1="720.4653972594778" x2="720.4653972594778" y1="418" y2="430" />
</g>
</g>
<text fill="hsl(144, 100%, 40%)" y="462">infix.parseStatus 38.3 μs</text>
<g>
<title>38.3 μs ± 2.8 μs</title>
<rect y="468" rx="5" height="22" width="7.346615335472592" fill="hsl(144, 100%, 80%)" stroke="hsl(144, 100%, 55%)" />
<g stroke="hsl(144, 100%, 40%)"><line x1="6.814147805709753" x2="7.87908286523543" y1="479" y2="479" />
<line x1="6.814147805709753" x2="6.814147805709753" y1="473" y2="485" />
<line x1="7.87908286523543" x2="7.87908286523543" y1="473" y2="485" />
</g>
</g>
<text fill="hsl(162, 100%, 40%)" y="517">infix.parseStatusLocal 54.1 μs</text>
<g>
<title>54.1 μs ± 3.0 μs</title>
<rect y="523" rx="5" height="22" width="10.376697632517692" fill="hsl(162, 100%, 80%)" stroke="hsl(162, 100%, 55%)" />
<g stroke="hsl(162, 100%, 40%)"><line x1="9.79963811591482" x2="10.953757149120563" y1="534" y2="534" />
<line x1="9.79963811591482" x2="9.79963811591482" y1="528" y2="540" />
<line x1="10.953757149120563" x2="10.953757149120563" y1="528" y2="540" />
</g>
</g>
<text fill="hsl(180, 100%, 40%)" y="572">infix.parseStatusInfix 271  μs</text>
<g>
<title>271  μs ±  24 μs</title>
<rect y="578" rx="5" height="22" width="52.06071491068824" fill="hsl(180, 100%, 80%)" stroke="hsl(180, 100%, 55%)" />
<g stroke="hsl(180, 100%, 40%)"><line x1="47.37145690455342" x2="56.74997291682306" y1="589" y2="589" />
<line x1="47.37145690455342" x2="47.37145690455342" y1="583" y2="595" />
<line x1="56.74997291682306" x2="56.74997291682306" y1="583" y2="595" />
</g>
</g>
<text fill="hsl(198, 100%, 40%)" y="627">infix.parseStatusLocalInfix 455  μs</text>
<g>
<title>455  μs ±  27 μs</title>
<rect y="633" rx="5" height="22" width="87.23969123467276" fill="hsl(198, 100%, 80%)" stroke="hsl(198, 100%, 55%)" />
<g stroke="hsl(198, 100%, 40%)"><line x1="82.03061063185092" x2="92.4487718374946" y1="644" y2="644" />
<line x1="82.03061063185092" x2="82.03061063185092" y1="638" y2="650" />
<line x1="92.4487718374946" x2="92.4487718374946" y1="638" y2="650" />
</g>
</g>
<text fill="hsl(216, 100%, 40%)" y="682">local_infix.parseStatus 37.6 μs</text>
<g>
<title>37.6 μs ± 3.2 μs</title>
<rect y="688" rx="5" height="22" width="7.21278294834931" fill="hsl(216, 100%, 80%)" stroke="hsl(216, 100%, 55%)" />
<g stroke="hsl(216, 100%, 40%)"><line x1="6.594498232229824" x2="7.831067664468796" y1="699" y2="699" />
<line x1="6.594498232229824" x2="6.594498232229824" y1="693" y2="705" />
<line x1="7.831067664468796" x2="7.831067664468796" y1="693" y2="705" />
</g>
</g>
<text fill="hsl(234, 100%, 40%)" y="737">local_infix.parseStatusLocal 54.7 μs</text>
<g>
<title>54.7 μs ± 5.3 μs</title>
<rect y="743" rx="5" height="22" width="10.49206105502206" fill="hsl(234, 100%, 80%)" stroke="hsl(234, 100%, 55%)" />
<g stroke="hsl(234, 100%, 40%)"><line x1="9.482440572359481" x2="11.501681537684638" y1="754" y2="754" />
<line x1="9.482440572359481" x2="9.482440572359481" y1="748" y2="760" />
<line x1="11.501681537684638" x2="11.501681537684638" y1="748" y2="760" />
</g>
</g>
<text fill="hsl(252, 100%, 40%)" y="792">local_infix.parseStatusInfix 1.18 ms</text>
<g>
<title>1.18 ms ±  88 μs</title>
<rect y="798" rx="5" height="22" width="226.63147066753197" fill="hsl(252, 100%, 80%)" stroke="hsl(252, 100%, 55%)" />
<g stroke="hsl(252, 100%, 40%)"><line x1="209.80263777913154" x2="243.4603035559324" y1="809" y2="809" />
<line x1="209.80263777913154" x2="209.80263777913154" y1="803" y2="815" />
<line x1="243.4603035559324" x2="243.4603035559324" y1="803" y2="815" />
</g>
</g>
<g fill="hsl(270, 100%, 40%)">
<text y="847">local_infix.parseStatusLocalInfix</text>
<text y="847" x="873.42696847225" text-anchor="end">4.55 ms</text>
</g>
<g>
<title>4.55 ms ± 347 μs</title>
<rect y="853" rx="5" height="22" width="873.42696847225" fill="hsl(270, 100%, 80%)" stroke="hsl(270, 100%, 55%)" />
<g stroke="hsl(270, 100%, 40%)"><line x1="806.8539369445" x2="940.0" y1="864" y2="864" />
<line x1="806.8539369445" x2="806.8539369445" y1="858" y2="870" />
<line x1="940.0" x2="940.0" y1="858" y2="870" />
</g>
</g>
<text fill="hsl(288, 100%, 40%)" y="902">formatStatus 20.6 μs</text>
<g>
<title>20.6 μs ± 795 ns</title>
<rect y="908" rx="5" height="22" width="3.962722690347916" fill="hsl(288, 100%, 80%)" stroke="hsl(288, 100%, 55%)" />
<g stroke="hsl(288, 100%, 40%)"><line x1="3.810132871991473" x2="4.115312508704359" y1="919" y2="919" />
<line x1="3.810132871991473" x2="3.810132871991473" y1="913" y2="925" />
<line x1="4.115312508704359" x2="4.115312508704359" y1="913" y2="925" />
</g>
</g>
<text fill="hsl(306, 100%, 40%)" y="957">formatStatus_compact 18.7 μs</text>
<g>
<title>18.7 μs ± 1.5 μs</title>
<rect y="963" rx="5" height="22" width="3.5962409232359267" fill="hsl(306, 100%, 80%)" stroke="hsl(306, 100%, 55%)" />
<g stroke="hsl(306, 100%, 40%)"><line x1="3.315120899183444" x2="3.8773609472884094" y1="974" y2="974" />
<line x1="3.315120899183444" x2="3.315120899183444" y1="968" y2="980" />
<line x1="3.8773609472884094" x2="3.8773609472884094" y1="968" y2="980" />
</g>
</g>
<text fill="hsl(324, 100%, 40%)" y="1012">readFormattedStatus 147  μs</text>
<g>
<title>147  μs ± 7.2 μs</title>
<rect y="1018" rx="5" height="22" width="28.204216909759303" fill="hsl(324, 100%, 80%)" stroke="hsl(324, 100%, 55%)" />
<g stroke="hsl(324, 100%, 40%)"><line x1="26.815789285733086" x2="29.59264453378552" y1="1029" y2="1029" />
<line x1="26.815789285733086" x2="26.815789285733086" y1="1023" y2="1035" />
<line x1="29.59264453378552" x2="29.59264453378552" y1="1023" y2="1035" />
</g>
</g>
<text fill="hsl(342, 100%, 40%)" y="1067">readFormattedStatus_compact 147  μs</text>
<g>
<title>147  μs ±  10 μs</title>
<rect y="1073" rx="5" height="22" width="28.17277558422432" fill="hsl(342, 100%, 80%)" stroke="hsl(342, 100%, 55%)" />
<g stroke="hsl(342, 100%, 40%)"><line x1="26.15805642424289" x2="30.187494744205747" y1="1084" y2="1084" />
<line x1="26.15805642424289" x2="26.15805642424289" y1="1078" y2="1090" />
<line x1="30.187494744205747" x2="30.187494744205747" y1="1078" y2="1090" />
</g>
</g>
</g>
</svg>
