<svg xmlns="http://www.w3.org/2000/svg" height="337" width="960.0" font-size="16" font-family="sans-serif" stroke-width="2">
<g transform="translate(10.0 0)">
<g fill="hsl(0, 100%, 40%)">
<text y="22">parseStatus</text>
<text y="22" x="245.07905291475123" text-anchor="end">69.9 μs</text>
</g>
<g>
<title>69.9 μs ± 5.5 μs</title>
<rect y="28" rx="5" height="22" width="245.07905291475123" fill="hsl(0, 100%, 80%)" stroke="hsl(0, 100%, 55%)" />
<g stroke="hsl(0, 100%, 40%)"><line x1="225.7194726755131" x2="264.4386331539894" y1="39" y2="39" />
<line x1="225.7194726755131" x2="225.7194726755131" y1="33" y2="45" />
<line x1="264.4386331539894" x2="264.4386331539894" y1="33" y2="45" />
</g>
</g>
<g fill="hsl(60, 100%, 40%)">
<text y="77">parseStatusInfix</text>
<text y="77" x="862.1115654353225" text-anchor="end">246  μs</text>
</g>
<g>
<title>246  μs ±  22 μs</title>
<rect y="83" rx="5" height="22" width="862.1115654353225" fill="hsl(60, 100%, 80%)" stroke="hsl(60, 100%, 55%)" />
<g stroke="hsl(60, 100%, 40%)"><line x1="784.223130870645" x2="940.0" y1="94" y2="94" />
<line x1="784.223130870645" x2="784.223130870645" y1="88" y2="100" />
<line x1="940.0" x2="940.0" y1="88" y2="100" />
</g>
</g>
<text fill="hsl(120, 100%, 40%)" y="132">formatStatus 21.0 μs</text>
<g>
<title>21.0 μs ± 2.1 μs</title>
<rect y="138" rx="5" height="22" width="73.65120204655975" fill="hsl(120, 100%, 80%)" stroke="hsl(120, 100%, 55%)" />
<g stroke="hsl(120, 100%, 40%)"><line x1="66.3490491841614" x2="80.95335490895809" y1="149" y2="149" />
<line x1="66.3490491841614" x2="66.3490491841614" y1="143" y2="155" />
<line x1="80.95335490895809" x2="80.95335490895809" y1="143" y2="155" />
</g>
</g>
<text fill="hsl(180, 100%, 40%)" y="187">formatStatus_compact 18.8 μs</text>
<g>
<title>18.8 μs ± 1.4 μs</title>
<rect y="193" rx="5" height="22" width="65.74332431144182" fill="hsl(180, 100%, 80%)" stroke="hsl(180, 100%, 55%)" />
<g stroke="hsl(180, 100%, 40%)"><line x1="60.72792685020207" x2="70.75872177268158" y1="204" y2="204" />
<line x1="60.72792685020207" x2="60.72792685020207" y1="198" y2="210" />
<line x1="70.75872177268158" x2="70.75872177268158" y1="198" y2="210" />
</g>
</g>
<g fill="hsl(240, 100%, 40%)">
<text y="242">readFormattedStatus</text>
<text y="242" x="472.6066533677896" text-anchor="end">135  μs</text>
</g>
<g>
<title>135  μs ± 7.9 μs</title>
<rect y="248" rx="5" height="22" width="472.6066533677896" fill="hsl(240, 100%, 80%)" stroke="hsl(240, 100%, 55%)" />
<g stroke="hsl(240, 100%, 40%)"><line x1="444.8706657538071" x2="500.3426409817721" y1="259" y2="259" />
<line x1="444.8706657538071" x2="444.8706657538071" y1="253" y2="265" />
<line x1="500.3426409817721" x2="500.3426409817721" y1="253" y2="265" />
</g>
</g>
<g fill="hsl(300, 100%, 40%)">
<text y="297">readFormattedStatus_compact</text>
<text y="297" x="468.94678587417775" text-anchor="end">134  μs</text>
</g>
<g>
<title>134  μs ±  12 μs</title>
<rect y="303" rx="5" height="22" width="468.94678587417775" fill="hsl(300, 100%, 80%)" stroke="hsl(300, 100%, 55%)" />
<g stroke="hsl(300, 100%, 40%)"><line x1="428.5114306176118" x2="509.3821411307437" y1="314" y2="314" />
<line x1="428.5114306176118" x2="428.5114306176118" y1="308" y2="320" />
<line x1="509.3821411307437" x2="509.3821411307437" y1="308" y2="320" />
</g>
</g>
</g>
</svg>
