<svg xmlns="http://www.w3.org/2000/svg" height="337" width="960.0" font-size="16" font-family="sans-serif" stroke-width="2">
<g transform="translate(10.0 0)">
<g fill="hsl(0, 100%, 40%)">
<text y="22">parseStatus</text>
<text y="22" x="281.03907051609156" text-anchor="end">77.2 μs</text>
</g>
<g>
<title>77.2 μs ± 6.2 μs</title>
<rect y="28" rx="5" height="22" width="281.03907051609156" fill="hsl(0, 100%, 80%)" stroke="hsl(0, 100%, 55%)" />
<g stroke="hsl(0, 100%, 40%)"><line x1="258.5150618114643" x2="303.5630792207188" y1="39" y2="39" />
<line x1="258.5150618114643" x2="258.5150618114643" y1="33" y2="45" />
<line x1="303.5630792207188" x2="303.5630792207188" y1="33" y2="45" />
</g>
</g>
<g fill="hsl(60, 100%, 40%)">
<text y="77">parseStatusInfix</text>
<text y="77" x="915.0214727929823" text-anchor="end">251  μs</text>
</g>
<g>
<title>251  μs ± 6.9 μs</title>
<rect y="83" rx="5" height="22" width="915.0214727929823" fill="hsl(60, 100%, 80%)" stroke="hsl(60, 100%, 55%)" />
<g stroke="hsl(60, 100%, 40%)"><line x1="890.0429455859646" x2="940.0" y1="94" y2="94" />
<line x1="890.0429455859646" x2="890.0429455859646" y1="88" y2="100" />
<line x1="940.0" x2="940.0" y1="88" y2="100" />
</g>
</g>
<text fill="hsl(120, 100%, 40%)" y="132">formatStatus 20.1 μs</text>
<g>
<title>20.1 μs ± 2.0 μs</title>
<rect y="138" rx="5" height="22" width="73.04273274357328" fill="hsl(120, 100%, 80%)" stroke="hsl(120, 100%, 55%)" />
<g stroke="hsl(120, 100%, 40%)"><line x1="65.86800091271056" x2="80.21746457443601" y1="149" y2="149" />
<line x1="65.86800091271056" x2="65.86800091271056" y1="143" y2="155" />
<line x1="80.21746457443601" x2="80.21746457443601" y1="143" y2="155" />
</g>
</g>
<text fill="hsl(180, 100%, 40%)" y="187">formatStatus_compact 19.3 μs</text>
<g>
<title>19.3 μs ± 1.6 μs</title>
<rect y="193" rx="5" height="22" width="70.3187604671293" fill="hsl(180, 100%, 80%)" stroke="hsl(180, 100%, 55%)" />
<g stroke="hsl(180, 100%, 40%)"><line x1="64.31541104771517" x2="76.32210988654342" y1="204" y2="204" />
<line x1="64.31541104771517" x2="64.31541104771517" y1="198" y2="210" />
<line x1="76.32210988654342" x2="76.32210988654342" y1="198" y2="210" />
</g>
</g>
<g fill="hsl(240, 100%, 40%)">
<text y="242">readFormattedStatus</text>
<text y="242" x="505.94566201360925" text-anchor="end">139  μs</text>
</g>
<g>
<title>139  μs ±  11 μs</title>
<rect y="248" rx="5" height="22" width="505.94566201360925" fill="hsl(240, 100%, 80%)" stroke="hsl(240, 100%, 55%)" />
<g stroke="hsl(240, 100%, 40%)"><line x1="466.15522932286433" x2="545.7360947043542" y1="259" y2="259" />
<line x1="466.15522932286433" x2="466.15522932286433" y1="253" y2="265" />
<line x1="545.7360947043542" x2="545.7360947043542" y1="253" y2="265" />
</g>
</g>
<g fill="hsl(300, 100%, 40%)">
<text y="297">readFormattedStatus_compact</text>
<text y="297" x="506.5904261415099" text-anchor="end">139  μs</text>
</g>
<g>
<title>139  μs ±  14 μs</title>
<rect y="303" rx="5" height="22" width="506.5904261415099" fill="hsl(300, 100%, 80%)" stroke="hsl(300, 100%, 55%)" />
<g stroke="hsl(300, 100%, 40%)"><line x1="456.94770170220545" x2="556.2331505808144" y1="314" y2="314" />
<line x1="456.94770170220545" x2="456.94770170220545" y1="308" y2="320" />
<line x1="556.2331505808144" x2="556.2331505808144" y1="308" y2="320" />
</g>
</g>
</g>
</svg>
