<svg xmlns="http://www.w3.org/2000/svg" height="282" width="960.0" font-size="16" font-family="sans-serif" stroke-width="2">
<g transform="translate(10.0 0)">
<g fill="hsl(0, 100%, 40%)">
<text y="22">parseStatus</text>
<text y="22" x="458.0057030779478" text-anchor="end">68.4 μs</text>
</g>
<g>
<title>68.4 μs ± 5.3 μs</title>
<rect y="28" rx="5" height="22" width="458.0057030779478" fill="hsl(0, 100%, 80%)" stroke="hsl(0, 100%, 55%)" />
<g stroke="hsl(0, 100%, 40%)"><line x1="422.5460742156957" x2="493.4653319402" y1="39" y2="39" />
<line x1="422.5460742156957" x2="422.5460742156957" y1="33" y2="45" />
<line x1="493.4653319402" x2="493.4653319402" y1="33" y2="45" />
</g>
</g>
<text fill="hsl(72, 100%, 40%)" y="77">formatStatus 20.1 μs</text>
<g>
<title>20.1 μs ± 1.3 μs</title>
<rect y="83" rx="5" height="22" width="134.6370784639394" fill="hsl(72, 100%, 80%)" stroke="hsl(72, 100%, 55%)" />
<g stroke="hsl(72, 100%, 40%)"><line x1="125.89383288873731" x2="143.38032403914147" y1="94" y2="94" />
<line x1="125.89383288873731" x2="125.89383288873731" y1="88" y2="100" />
<line x1="143.38032403914147" x2="143.38032403914147" y1="88" y2="100" />
</g>
</g>
<text fill="hsl(144, 100%, 40%)" y="132">formatStatus_compact 19.5 μs</text>
<g>
<title>19.5 μs ± 1.8 μs</title>
<rect y="138" rx="5" height="22" width="130.44685831482687" fill="hsl(144, 100%, 80%)" stroke="hsl(144, 100%, 55%)" />
<g stroke="hsl(144, 100%, 40%)"><line x1="118.27887288642127" x2="142.61484374323248" y1="149" y2="149" />
<line x1="118.27887288642127" x2="118.27887288642127" y1="143" y2="155" />
<line x1="142.61484374323248" x2="142.61484374323248" y1="143" y2="155" />
</g>
</g>
<g fill="hsl(216, 100%, 40%)">
<text y="187">readFormattedStatus</text>
<text y="187" x="869.5628420524606" text-anchor="end">130  μs</text>
</g>
<g>
<title>130  μs ± 6.6 μs</title>
<rect y="193" rx="5" height="22" width="869.5628420524606" fill="hsl(216, 100%, 80%)" stroke="hsl(216, 100%, 55%)" />
<g stroke="hsl(216, 100%, 40%)"><line x1="825.4151183027359" x2="913.7105658021853" y1="204" y2="204" />
<line x1="825.4151183027359" x2="825.4151183027359" y1="198" y2="210" />
<line x1="913.7105658021853" x2="913.7105658021853" y1="198" y2="210" />
</g>
</g>
<g fill="hsl(288, 100%, 40%)">
<text y="242">readFormattedStatus_compact</text>
<text y="242" x="866.6569914223592" text-anchor="end">129  μs</text>
</g>
<g>
<title>129  μs ±  11 μs</title>
<rect y="248" rx="5" height="22" width="866.6569914223592" fill="hsl(288, 100%, 80%)" stroke="hsl(288, 100%, 55%)" />
<g stroke="hsl(288, 100%, 40%)"><line x1="793.3139828447183" x2="940.0" y1="259" y2="259" />
<line x1="793.3139828447183" x2="793.3139828447183" y1="253" y2="265" />
<line x1="940.0" x2="940.0" y1="253" y2="265" />
</g>
</g>
</g>
</svg>
